<?xml version="1.0" encoding="utf-8" standalone="no"?>
<!DOCTYPE svg PUBLIC "-//W3C//DTD SVG 1.1//EN"
  "http://www.w3.org/Graphics/SVG/1.1/DTD/svg11.dtd">
<svg xmlns:xlink="http://www.w3.org/1999/xlink" width="720pt" height="396pt" viewBox="0 0 720 396" xmlns="http://www.w3.org/2000/svg" version="1.1">
 <metadata>
  <rdf:RDF xmlns:dc="http://purl.org/dc/elements/1.1/" xmlns:cc="http://creativecommons.org/ns#" xmlns:rdf="http://www.w3.org/1999/02/22-rdf-syntax-ns#">
   <cc:Work>
    <dc:type rdf:resource="http://purl.org/dc/dcmitype/StillImage"/>
    <dc:date>2026-06-06T20:49:52.791209</dc:date>
    <dc:format>image/svg+xml</dc:format>
    <dc:creator>
     <cc:Agent>
      <dc:title>Matplotlib v3.10.9, https://matplotlib.org/</dc:title>
     </cc:Agent>
    </dc:creator>
   </cc:Work>
  </rdf:RDF>
 </metadata>
 <defs>
  <style type="text/css">*{stroke-linejoin: round; stroke-linecap: butt}</style>
 </defs>
 <g id="figure_1">
  <g id="patch_1">
   <path d="M 0 396 
L 720 396 
L 720 0 
L 0 0 
z
" style="fill: #ffffff"/>
  </g>
  <g id="axes_1">
   <g id="patch_2">
    <path d="M 50.87 353.68 
L 664.519091 353.68 
L 664.519091 42.648 
L 50.87 42.648 
z
" style="fill: #ffffff"/>
   </g>
   <g id="matplotlib.axis_1">
    <g id="xtick_1">
     <g id="line2d_1">
      <path d="M 60.767566 353.68 
L 60.767566 42.648 
" clip-path="url(#p70e1f04213)" style="fill: none; stroke-dasharray: 2.96,1.28; stroke-dashoffset: 0; stroke: #b0b0b0; stroke-opacity: 0.5; stroke-width: 0.8"/>
     </g>
     <g id="line2d_2">
      <defs>
       <path id="m7c8f1b5250" d="M 0 0 
L 0 3.5 
" style="stroke: #000000; stroke-width: 0.8"/>
      </defs>
      <g>
       <use xlink:href="#m7c8f1b5250" x="60.767566" y="353.68" style="stroke: #000000; stroke-width: 0.8"/>
      </g>
     </g>
     <g id="text_1">
      <!-- 0 -->
      <g transform="translate(57.586316 368.278437) scale(0.1 -0.1)">
       <defs>
        <path id="DejaVuSans-30" d="M 2034 4250 
Q 1547 4250 1301 3770 
Q 1056 3291 1056 2328 
Q 1056 1369 1301 889 
Q 1547 409 2034 409 
Q 2525 409 2770 889 
Q 3016 1369 3016 2328 
Q 3016 3291 2770 3770 
Q 2525 4250 2034 4250 
z
M 2034 4750 
Q 2819 4750 3233 4129 
Q 3647 3509 3647 2328 
Q 3647 1150 3233 529 
Q 2819 -91 2034 -91 
Q 1250 -91 836 529 
Q 422 1150 422 2328 
Q 422 3509 836 4129 
Q 1250 4750 2034 4750 
z
" transform="scale(0.015625)"/>
       </defs>
       <use xlink:href="#DejaVuSans-30"/>
      </g>
     </g>
    </g>
    <g id="xtick_2">
     <g id="line2d_3">
      <path d="M 150.745439 353.68 
L 150.745439 42.648 
" clip-path="url(#p70e1f04213)" style="fill: none; stroke-dasharray: 2.96,1.28; stroke-dashoffset: 0; stroke: #b0b0b0; stroke-opacity: 0.5; stroke-width: 0.8"/>
     </g>
     <g id="line2d_4">
      <g>
       <use xlink:href="#m7c8f1b5250" x="150.745439" y="353.68" style="stroke: #000000; stroke-width: 0.8"/>
      </g>
     </g>
     <g id="text_2">
      <!-- 5 -->
      <g transform="translate(147.564189 368.278437) scale(0.1 -0.1)">
       <defs>
        <path id="DejaVuSans-35" d="M 691 4666 
L 3169 4666 
L 3169 4134 
L 1269 4134 
L 1269 2991 
Q 1406 3038 1543 3061 
Q 1681 3084 1819 3084 
Q 2600 3084 3056 2656 
Q 3513 2228 3513 1497 
Q 3513 744 3044 326 
Q 2575 -91 1722 -91 
Q 1428 -91 1123 -41 
Q 819 9 494 109 
L 494 744 
Q 775 591 1075 516 
Q 1375 441 1709 441 
Q 2250 441 2565 725 
Q 2881 1009 2881 1497 
Q 2881 1984 2565 2268 
Q 2250 2553 1709 2553 
Q 1456 2553 1204 2497 
Q 953 2441 691 2322 
L 691 4666 
z
" transform="scale(0.015625)"/>
       </defs>
       <use xlink:href="#DejaVuSans-35"/>
      </g>
     </g>
    </g>
    <g id="xtick_3">
     <g id="line2d_5">
      <path d="M 240.723311 353.68 
L 240.723311 42.648 
" clip-path="url(#p70e1f04213)" style="fill: none; stroke-dasharray: 2.96,1.28; stroke-dashoffset: 0; stroke: #b0b0b0; stroke-opacity: 0.5; stroke-width: 0.8"/>
     </g>
     <g id="line2d_6">
      <g>
       <use xlink:href="#m7c8f1b5250" x="240.723311" y="353.68" style="stroke: #000000; stroke-width: 0.8"/>
      </g>
     </g>
     <g id="text_3">
      <!-- 10 -->
      <g transform="translate(234.360811 368.278437) scale(0.1 -0.1)">
       <defs>
        <path id="DejaVuSans-31" d="M 794 531 
L 1825 531 
L 1825 4091 
L 703 3866 
L 703 4441 
L 1819 4666 
L 2450 4666 
L 2450 531 
L 3481 531 
L 3481 0 
L 794 0 
L 794 531 
z
" transform="scale(0.015625)"/>
       </defs>
       <use xlink:href="#DejaVuSans-31"/>
       <use xlink:href="#DejaVuSans-30" transform="translate(63.623047 0)"/>
      </g>
     </g>
    </g>
    <g id="xtick_4">
     <g id="line2d_7">
      <path d="M 330.701184 353.68 
L 330.701184 42.648 
" clip-path="url(#p70e1f04213)" style="fill: none; stroke-dasharray: 2.96,1.28; stroke-dashoffset: 0; stroke: #b0b0b0; stroke-opacity: 0.5; stroke-width: 0.8"/>
     </g>
     <g id="line2d_8">
      <g>
       <use xlink:href="#m7c8f1b5250" x="330.701184" y="353.68" style="stroke: #000000; stroke-width: 0.8"/>
      </g>
     </g>
     <g id="text_4">
      <!-- 15 -->
      <g transform="translate(324.338684 368.278437) scale(0.1 -0.1)">
       <use xlink:href="#DejaVuSans-31"/>
       <use xlink:href="#DejaVuSans-35" transform="translate(63.623047 0)"/>
      </g>
     </g>
    </g>
    <g id="xtick_5">
     <g id="line2d_9">
      <path d="M 420.679056 353.68 
L 420.679056 42.648 
" clip-path="url(#p70e1f04213)" style="fill: none; stroke-dasharray: 2.96,1.28; stroke-dashoffset: 0; stroke: #b0b0b0; stroke-opacity: 0.5; stroke-width: 0.8"/>
     </g>
     <g id="line2d_10">
      <g>
       <use xlink:href="#m7c8f1b5250" x="420.679056" y="353.68" style="stroke: #000000; stroke-width: 0.8"/>
      </g>
     </g>
     <g id="text_5">
      <!-- 20 -->
      <g transform="translate(414.316556 368.278437) scale(0.1 -0.1)">
       <defs>
        <path id="DejaVuSans-32" d="M 1228 531 
L 3431 531 
L 3431 0 
L 469 0 
L 469 531 
Q 828 903 1448 1529 
Q 2069 2156 2228 2338 
Q 2531 2678 2651 2914 
Q 2772 3150 2772 3378 
Q 2772 3750 2511 3984 
Q 2250 4219 1831 4219 
Q 1534 4219 1204 4116 
Q 875 4013 500 3803 
L 500 4441 
Q 881 4594 1212 4672 
Q 1544 4750 1819 4750 
Q 2544 4750 2975 4387 
Q 3406 4025 3406 3419 
Q 3406 3131 3298 2873 
Q 3191 2616 2906 2266 
Q 2828 2175 2409 1742 
Q 1991 1309 1228 531 
z
" transform="scale(0.015625)"/>
       </defs>
       <use xlink:href="#DejaVuSans-32"/>
       <use xlink:href="#DejaVuSans-30" transform="translate(63.623047 0)"/>
      </g>
     </g>
    </g>
    <g id="xtick_6">
     <g id="line2d_11">
      <path d="M 510.656929 353.68 
L 510.656929 42.648 
" clip-path="url(#p70e1f04213)" style="fill: none; stroke-dasharray: 2.96,1.28; stroke-dashoffset: 0; stroke: #b0b0b0; stroke-opacity: 0.5; stroke-width: 0.8"/>
     </g>
     <g id="line2d_12">
      <g>
       <use xlink:href="#m7c8f1b5250" x="510.656929" y="353.68" style="stroke: #000000; stroke-width: 0.8"/>
      </g>
     </g>
     <g id="text_6">
      <!-- 25 -->
      <g transform="translate(504.294429 368.278437) scale(0.1 -0.1)">
       <use xlink:href="#DejaVuSans-32"/>
       <use xlink:href="#DejaVuSans-35" transform="translate(63.623047 0)"/>
      </g>
     </g>
    </g>
    <g id="xtick_7">
     <g id="line2d_13">
      <path d="M 600.634801 353.68 
L 600.634801 42.648 
" clip-path="url(#p70e1f04213)" style="fill: none; stroke-dasharray: 2.96,1.28; stroke-dashoffset: 0; stroke: #b0b0b0; stroke-opacity: 0.5; stroke-width: 0.8"/>
     </g>
     <g id="line2d_14">
      <g>
       <use xlink:href="#m7c8f1b5250" x="600.634801" y="353.68" style="stroke: #000000; stroke-width: 0.8"/>
      </g>
     </g>
     <g id="text_7">
      <!-- 30 -->
      <g transform="translate(594.272301 368.278437) scale(0.1 -0.1)">
       <defs>
        <path id="DejaVuSans-33" d="M 2597 2516 
Q 3050 2419 3304 2112 
Q 3559 1806 3559 1356 
Q 3559 666 3084 287 
Q 2609 -91 1734 -91 
Q 1441 -91 1130 -33 
Q 819 25 488 141 
L 488 750 
Q 750 597 1062 519 
Q 1375 441 1716 441 
Q 2309 441 2620 675 
Q 2931 909 2931 1356 
Q 2931 1769 2642 2001 
Q 2353 2234 1838 2234 
L 1294 2234 
L 1294 2753 
L 1863 2753 
Q 2328 2753 2575 2939 
Q 2822 3125 2822 3475 
Q 2822 3834 2567 4026 
Q 2313 4219 1838 4219 
Q 1578 4219 1281 4162 
Q 984 4106 628 3988 
L 628 4550 
Q 988 4650 1302 4700 
Q 1616 4750 1894 4750 
Q 2613 4750 3031 4423 
Q 3450 4097 3450 3541 
Q 3450 3153 3228 2886 
Q 3006 2619 2597 2516 
z
" transform="scale(0.015625)"/>
       </defs>
       <use xlink:href="#DejaVuSans-33"/>
       <use xlink:href="#DejaVuSans-30" transform="translate(63.623047 0)"/>
      </g>
     </g>
    </g>
    <g id="text_8">
     <!-- Numéro de la tentative (ordre chronologique) -->
     <g transform="translate(243.869545 382.356562) scale(0.1 -0.1)">
      <defs>
       <path id="DejaVuSans-4e" d="M 628 4666 
L 1478 4666 
L 3547 763 
L 3547 4666 
L 4159 4666 
L 4159 0 
L 3309 0 
L 1241 3903 
L 1241 0 
L 628 0 
L 628 4666 
z
" transform="scale(0.015625)"/>
       <path id="DejaVuSans-75" d="M 544 1381 
L 544 3500 
L 1119 3500 
L 1119 1403 
Q 1119 906 1312 657 
Q 1506 409 1894 409 
Q 2359 409 2629 706 
Q 2900 1003 2900 1516 
L 2900 3500 
L 3475 3500 
L 3475 0 
L 2900 0 
L 2900 538 
Q 2691 219 2414 64 
Q 2138 -91 1772 -91 
Q 1169 -91 856 284 
Q 544 659 544 1381 
z
M 1991 3584 
L 1991 3584 
z
" transform="scale(0.015625)"/>
       <path id="DejaVuSans-6d" d="M 3328 2828 
Q 3544 3216 3844 3400 
Q 4144 3584 4550 3584 
Q 5097 3584 5394 3201 
Q 5691 2819 5691 2113 
L 5691 0 
L 5113 0 
L 5113 2094 
Q 5113 2597 4934 2840 
Q 4756 3084 4391 3084 
Q 3944 3084 3684 2787 
Q 3425 2491 3425 1978 
L 3425 0 
L 2847 0 
L 2847 2094 
Q 2847 2600 2669 2842 
Q 2491 3084 2119 3084 
Q 1678 3084 1418 2786 
Q 1159 2488 1159 1978 
L 1159 0 
L 581 0 
L 581 3500 
L 1159 3500 
L 1159 2956 
Q 1356 3278 1631 3431 
Q 1906 3584 2284 3584 
Q 2666 3584 2933 3390 
Q 3200 3197 3328 2828 
z
" transform="scale(0.015625)"/>
       <path id="DejaVuSans-e9" d="M 3597 1894 
L 3597 1613 
L 953 1613 
Q 991 1019 1311 708 
Q 1631 397 2203 397 
Q 2534 397 2845 478 
Q 3156 559 3463 722 
L 3463 178 
Q 3153 47 2828 -22 
Q 2503 -91 2169 -91 
Q 1331 -91 842 396 
Q 353 884 353 1716 
Q 353 2575 817 3079 
Q 1281 3584 2069 3584 
Q 2775 3584 3186 3129 
Q 3597 2675 3597 1894 
z
M 3022 2063 
Q 3016 2534 2758 2815 
Q 2500 3097 2075 3097 
Q 1594 3097 1305 2825 
Q 1016 2553 972 2059 
L 3022 2063 
z
M 2466 5119 
L 3088 5119 
L 2070 3944 
L 1591 3944 
L 2466 5119 
z
" transform="scale(0.015625)"/>
       <path id="DejaVuSans-72" d="M 2631 2963 
Q 2534 3019 2420 3045 
Q 2306 3072 2169 3072 
Q 1681 3072 1420 2755 
Q 1159 2438 1159 1844 
L 1159 0 
L 581 0 
L 581 3500 
L 1159 3500 
L 1159 2956 
Q 1341 3275 1631 3429 
Q 1922 3584 2338 3584 
Q 2397 3584 2469 3576 
Q 2541 3569 2628 3553 
L 2631 2963 
z
" transform="scale(0.015625)"/>
       <path id="DejaVuSans-6f" d="M 1959 3097 
Q 1497 3097 1228 2736 
Q 959 2375 959 1747 
Q 959 1119 1226 758 
Q 1494 397 1959 397 
Q 2419 397 2687 759 
Q 2956 1122 2956 1747 
Q 2956 2369 2687 2733 
Q 2419 3097 1959 3097 
z
M 1959 3584 
Q 2709 3584 3137 3096 
Q 3566 2609 3566 1747 
Q 3566 888 3137 398 
Q 2709 -91 1959 -91 
Q 1206 -91 779 398 
Q 353 888 353 1747 
Q 353 2609 779 3096 
Q 1206 3584 1959 3584 
z
" transform="scale(0.015625)"/>
       <path id="DejaVuSans-20" transform="scale(0.015625)"/>
       <path id="DejaVuSans-64" d="M 2906 2969 
L 2906 4863 
L 3481 4863 
L 3481 0 
L 2906 0 
L 2906 525 
Q 2725 213 2448 61 
Q 2172 -91 1784 -91 
Q 1150 -91 751 415 
Q 353 922 353 1747 
Q 353 2572 751 3078 
Q 1150 3584 1784 3584 
Q 2172 3584 2448 3432 
Q 2725 3281 2906 2969 
z
M 947 1747 
Q 947 1113 1208 752 
Q 1469 391 1925 391 
Q 2381 391 2643 752 
Q 2906 1113 2906 1747 
Q 2906 2381 2643 2742 
Q 2381 3103 1925 3103 
Q 1469 3103 1208 2742 
Q 947 2381 947 1747 
z
" transform="scale(0.015625)"/>
       <path id="DejaVuSans-65" d="M 3597 1894 
L 3597 1613 
L 953 1613 
Q 991 1019 1311 708 
Q 1631 397 2203 397 
Q 2534 397 2845 478 
Q 3156 559 3463 722 
L 3463 178 
Q 3153 47 2828 -22 
Q 2503 -91 2169 -91 
Q 1331 -91 842 396 
Q 353 884 353 1716 
Q 353 2575 817 3079 
Q 1281 3584 2069 3584 
Q 2775 3584 3186 3129 
Q 3597 2675 3597 1894 
z
M 3022 2063 
Q 3016 2534 2758 2815 
Q 2500 3097 2075 3097 
Q 1594 3097 1305 2825 
Q 1016 2553 972 2059 
L 3022 2063 
z
" transform="scale(0.015625)"/>
       <path id="DejaVuSans-6c" d="M 603 4863 
L 1178 4863 
L 1178 0 
L 603 0 
L 603 4863 
z
" transform="scale(0.015625)"/>
       <path id="DejaVuSans-61" d="M 2194 1759 
Q 1497 1759 1228 1600 
Q 959 1441 959 1056 
Q 959 750 1161 570 
Q 1363 391 1709 391 
Q 2188 391 2477 730 
Q 2766 1069 2766 1631 
L 2766 1759 
L 2194 1759 
z
M 3341 1997 
L 3341 0 
L 2766 0 
L 2766 531 
Q 2569 213 2275 61 
Q 1981 -91 1556 -91 
Q 1019 -91 701 211 
Q 384 513 384 1019 
Q 384 1609 779 1909 
Q 1175 2209 1959 2209 
L 2766 2209 
L 2766 2266 
Q 2766 2663 2505 2880 
Q 2244 3097 1772 3097 
Q 1472 3097 1187 3025 
Q 903 2953 641 2809 
L 641 3341 
Q 956 3463 1253 3523 
Q 1550 3584 1831 3584 
Q 2591 3584 2966 3190 
Q 3341 2797 3341 1997 
z
" transform="scale(0.015625)"/>
       <path id="DejaVuSans-74" d="M 1172 4494 
L 1172 3500 
L 2356 3500 
L 2356 3053 
L 1172 3053 
L 1172 1153 
Q 1172 725 1289 603 
Q 1406 481 1766 481 
L 2356 481 
L 2356 0 
L 1766 0 
Q 1100 0 847 248 
Q 594 497 594 1153 
L 594 3053 
L 172 3053 
L 172 3500 
L 594 3500 
L 594 4494 
L 1172 4494 
z
" transform="scale(0.015625)"/>
       <path id="DejaVuSans-6e" d="M 3513 2113 
L 3513 0 
L 2938 0 
L 2938 2094 
Q 2938 2591 2744 2837 
Q 2550 3084 2163 3084 
Q 1697 3084 1428 2787 
Q 1159 2491 1159 1978 
L 1159 0 
L 581 0 
L 581 3500 
L 1159 3500 
L 1159 2956 
Q 1366 3272 1645 3428 
Q 1925 3584 2291 3584 
Q 2894 3584 3203 3211 
Q 3513 2838 3513 2113 
z
" transform="scale(0.015625)"/>
       <path id="DejaVuSans-69" d="M 603 3500 
L 1178 3500 
L 1178 0 
L 603 0 
L 603 3500 
z
M 603 4863 
L 1178 4863 
L 1178 4134 
L 603 4134 
L 603 4863 
z
" transform="scale(0.015625)"/>
       <path id="DejaVuSans-76" d="M 191 3500 
L 800 3500 
L 1894 563 
L 2988 3500 
L 3597 3500 
L 2284 0 
L 1503 0 
L 191 3500 
z
" transform="scale(0.015625)"/>
       <path id="DejaVuSans-28" d="M 1984 4856 
Q 1566 4138 1362 3434 
Q 1159 2731 1159 2009 
Q 1159 1288 1364 580 
Q 1569 -128 1984 -844 
L 1484 -844 
Q 1016 -109 783 600 
Q 550 1309 550 2009 
Q 550 2706 781 3412 
Q 1013 4119 1484 4856 
L 1984 4856 
z
" transform="scale(0.015625)"/>
       <path id="DejaVuSans-63" d="M 3122 3366 
L 3122 2828 
Q 2878 2963 2633 3030 
Q 2388 3097 2138 3097 
Q 1578 3097 1268 2742 
Q 959 2388 959 1747 
Q 959 1106 1268 751 
Q 1578 397 2138 397 
Q 2388 397 2633 464 
Q 2878 531 3122 666 
L 3122 134 
Q 2881 22 2623 -34 
Q 2366 -91 2075 -91 
Q 1284 -91 818 406 
Q 353 903 353 1747 
Q 353 2603 823 3093 
Q 1294 3584 2113 3584 
Q 2378 3584 2631 3529 
Q 2884 3475 3122 3366 
z
" transform="scale(0.015625)"/>
       <path id="DejaVuSans-68" d="M 3513 2113 
L 3513 0 
L 2938 0 
L 2938 2094 
Q 2938 2591 2744 2837 
Q 2550 3084 2163 3084 
Q 1697 3084 1428 2787 
Q 1159 2491 1159 1978 
L 1159 0 
L 581 0 
L 581 4863 
L 1159 4863 
L 1159 2956 
Q 1366 3272 1645 3428 
Q 1925 3584 2291 3584 
Q 2894 3584 3203 3211 
Q 3513 2838 3513 2113 
z
" transform="scale(0.015625)"/>
       <path id="DejaVuSans-67" d="M 2906 1791 
Q 2906 2416 2648 2759 
Q 2391 3103 1925 3103 
Q 1463 3103 1205 2759 
Q 947 2416 947 1791 
Q 947 1169 1205 825 
Q 1463 481 1925 481 
Q 2391 481 2648 825 
Q 2906 1169 2906 1791 
z
M 3481 434 
Q 3481 -459 3084 -895 
Q 2688 -1331 1869 -1331 
Q 1566 -1331 1297 -1286 
Q 1028 -1241 775 -1147 
L 775 -588 
Q 1028 -725 1275 -790 
Q 1522 -856 1778 -856 
Q 2344 -856 2625 -561 
Q 2906 -266 2906 331 
L 2906 616 
Q 2728 306 2450 153 
Q 2172 0 1784 0 
Q 1141 0 747 490 
Q 353 981 353 1791 
Q 353 2603 747 3093 
Q 1141 3584 1784 3584 
Q 2172 3584 2450 3431 
Q 2728 3278 2906 2969 
L 2906 3500 
L 3481 3500 
L 3481 434 
z
" transform="scale(0.015625)"/>
       <path id="DejaVuSans-71" d="M 947 1747 
Q 947 1113 1208 752 
Q 1469 391 1925 391 
Q 2381 391 2643 752 
Q 2906 1113 2906 1747 
Q 2906 2381 2643 2742 
Q 2381 3103 1925 3103 
Q 1469 3103 1208 2742 
Q 947 2381 947 1747 
z
M 2906 525 
Q 2725 213 2448 61 
Q 2172 -91 1784 -91 
Q 1150 -91 751 415 
Q 353 922 353 1747 
Q 353 2572 751 3078 
Q 1150 3584 1784 3584 
Q 2172 3584 2448 3432 
Q 2725 3281 2906 2969 
L 2906 3500 
L 3481 3500 
L 3481 -1331 
L 2906 -1331 
L 2906 525 
z
" transform="scale(0.015625)"/>
       <path id="DejaVuSans-29" d="M 513 4856 
L 1013 4856 
Q 1481 4119 1714 3412 
Q 1947 2706 1947 2009 
Q 1947 1309 1714 600 
Q 1481 -109 1013 -844 
L 513 -844 
Q 928 -128 1133 580 
Q 1338 1288 1338 2009 
Q 1338 2731 1133 3434 
Q 928 4138 513 4856 
z
" transform="scale(0.015625)"/>
      </defs>
      <use xlink:href="#DejaVuSans-4e"/>
      <use xlink:href="#DejaVuSans-75" transform="translate(74.804688 0)"/>
      <use xlink:href="#DejaVuSans-6d" transform="translate(138.183594 0)"/>
      <use xlink:href="#DejaVuSans-e9" transform="translate(235.595703 0)"/>
      <use xlink:href="#DejaVuSans-72" transform="translate(297.119141 0)"/>
      <use xlink:href="#DejaVuSans-6f" transform="translate(335.982422 0)"/>
      <use xlink:href="#DejaVuSans-20" transform="translate(397.164062 0)"/>
      <use xlink:href="#DejaVuSans-64" transform="translate(428.951172 0)"/>
      <use xlink:href="#DejaVuSans-65" transform="translate(492.427734 0)"/>
      <use xlink:href="#DejaVuSans-20" transform="translate(553.951172 0)"/>
      <use xlink:href="#DejaVuSans-6c" transform="translate(585.738281 0)"/>
      <use xlink:href="#DejaVuSans-61" transform="translate(613.521484 0)"/>
      <use xlink:href="#DejaVuSans-20" transform="translate(674.800781 0)"/>
      <use xlink:href="#DejaVuSans-74" transform="translate(706.587891 0)"/>
      <use xlink:href="#DejaVuSans-65" transform="translate(745.796875 0)"/>
      <use xlink:href="#DejaVuSans-6e" transform="translate(807.320312 0)"/>
      <use xlink:href="#DejaVuSans-74" transform="translate(870.699219 0)"/>
      <use xlink:href="#DejaVuSans-61" transform="translate(909.908203 0)"/>
      <use xlink:href="#DejaVuSans-74" transform="translate(971.1875 0)"/>
      <use xlink:href="#DejaVuSans-69" transform="translate(1010.396484 0)"/>
      <use xlink:href="#DejaVuSans-76" transform="translate(1038.179688 0)"/>
      <use xlink:href="#DejaVuSans-65" transform="translate(1097.359375 0)"/>
      <use xlink:href="#DejaVuSans-20" transform="translate(1158.882812 0)"/>
      <use xlink:href="#DejaVuSans-28" transform="translate(1190.669922 0)"/>
      <use xlink:href="#DejaVuSans-6f" transform="translate(1229.683594 0)"/>
      <use xlink:href="#DejaVuSans-72" transform="translate(1290.865234 0)"/>
      <use xlink:href="#DejaVuSans-64" transform="translate(1330.228516 0)"/>
      <use xlink:href="#DejaVuSans-72" transform="translate(1393.705078 0)"/>
      <use xlink:href="#DejaVuSans-65" transform="translate(1432.568359 0)"/>
      <use xlink:href="#DejaVuSans-20" transform="translate(1494.091797 0)"/>
      <use xlink:href="#DejaVuSans-63" transform="translate(1525.878906 0)"/>
      <use xlink:href="#DejaVuSans-68" transform="translate(1580.859375 0)"/>
      <use xlink:href="#DejaVuSans-72" transform="translate(1644.238281 0)"/>
      <use xlink:href="#DejaVuSans-6f" transform="translate(1683.101562 0)"/>
      <use xlink:href="#DejaVuSans-6e" transform="translate(1744.283203 0)"/>
      <use xlink:href="#DejaVuSans-6f" transform="translate(1807.662109 0)"/>
      <use xlink:href="#DejaVuSans-6c" transform="translate(1868.84375 0)"/>
      <use xlink:href="#DejaVuSans-6f" transform="translate(1896.626953 0)"/>
      <use xlink:href="#DejaVuSans-67" transform="translate(1957.808594 0)"/>
      <use xlink:href="#DejaVuSans-69" transform="translate(2021.285156 0)"/>
      <use xlink:href="#DejaVuSans-71" transform="translate(2049.068359 0)"/>
      <use xlink:href="#DejaVuSans-75" transform="translate(2112.544922 0)"/>
      <use xlink:href="#DejaVuSans-65" transform="translate(2175.923828 0)"/>
      <use xlink:href="#DejaVuSans-29" transform="translate(2237.447266 0)"/>
     </g>
    </g>
   </g>
   <g id="matplotlib.axis_2">
    <g id="ytick_1">
     <g id="line2d_15">
      <path d="M 50.87 353.68 
L 664.519091 353.68 
" clip-path="url(#p70e1f04213)" style="fill: none; stroke-dasharray: 2.96,1.28; stroke-dashoffset: 0; stroke: #b0b0b0; stroke-opacity: 0.5; stroke-width: 0.8"/>
     </g>
     <g id="line2d_16">
      <defs>
       <path id="m75577ad768" d="M 0 0 
L -3.5 0 
" style="stroke: #000000; stroke-width: 0.8"/>
      </defs>
      <g>
       <use xlink:href="#m75577ad768" x="50.87" y="353.68" style="stroke: #000000; stroke-width: 0.8"/>
      </g>
     </g>
     <g id="text_9">
      <!-- 0 -->
      <g transform="translate(37.5075 357.479219) scale(0.1 -0.1)">
       <use xlink:href="#DejaVuSans-30"/>
      </g>
     </g>
    </g>
    <g id="ytick_2">
     <g id="line2d_17">
      <path d="M 50.87 294.43581 
L 664.519091 294.43581 
" clip-path="url(#p70e1f04213)" style="fill: none; stroke-dasharray: 2.96,1.28; stroke-dashoffset: 0; stroke: #b0b0b0; stroke-opacity: 0.5; stroke-width: 0.8"/>
     </g>
     <g id="line2d_18">
      <g>
       <use xlink:href="#m75577ad768" x="50.87" y="294.43581" style="stroke: #000000; stroke-width: 0.8"/>
      </g>
     </g>
     <g id="text_10">
      <!-- 20 -->
      <g transform="translate(31.145 298.235028) scale(0.1 -0.1)">
       <use xlink:href="#DejaVuSans-32"/>
       <use xlink:href="#DejaVuSans-30" transform="translate(63.623047 0)"/>
      </g>
     </g>
    </g>
    <g id="ytick_3">
     <g id="line2d_19">
      <path d="M 50.87 235.191619 
L 664.519091 235.191619 
" clip-path="url(#p70e1f04213)" style="fill: none; stroke-dasharray: 2.96,1.28; stroke-dashoffset: 0; stroke: #b0b0b0; stroke-opacity: 0.5; stroke-width: 0.8"/>
     </g>
     <g id="line2d_20">
      <g>
       <use xlink:href="#m75577ad768" x="50.87" y="235.191619" style="stroke: #000000; stroke-width: 0.8"/>
      </g>
     </g>
     <g id="text_11">
      <!-- 40 -->
      <g transform="translate(31.145 238.990838) scale(0.1 -0.1)">
       <defs>
        <path id="DejaVuSans-34" d="M 2419 4116 
L 825 1625 
L 2419 1625 
L 2419 4116 
z
M 2253 4666 
L 3047 4666 
L 3047 1625 
L 3713 1625 
L 3713 1100 
L 3047 1100 
L 3047 0 
L 2419 0 
L 2419 1100 
L 313 1100 
L 313 1709 
L 2253 4666 
z
" transform="scale(0.015625)"/>
       </defs>
       <use xlink:href="#DejaVuSans-34"/>
       <use xlink:href="#DejaVuSans-30" transform="translate(63.623047 0)"/>
      </g>
     </g>
    </g>
    <g id="ytick_4">
     <g id="line2d_21">
      <path d="M 50.87 175.947429 
L 664.519091 175.947429 
" clip-path="url(#p70e1f04213)" style="fill: none; stroke-dasharray: 2.96,1.28; stroke-dashoffset: 0; stroke: #b0b0b0; stroke-opacity: 0.5; stroke-width: 0.8"/>
     </g>
     <g id="line2d_22">
      <g>
       <use xlink:href="#m75577ad768" x="50.87" y="175.947429" style="stroke: #000000; stroke-width: 0.8"/>
      </g>
     </g>
     <g id="text_12">
      <!-- 60 -->
      <g transform="translate(31.145 179.746647) scale(0.1 -0.1)">
       <defs>
        <path id="DejaVuSans-36" d="M 2113 2584 
Q 1688 2584 1439 2293 
Q 1191 2003 1191 1497 
Q 1191 994 1439 701 
Q 1688 409 2113 409 
Q 2538 409 2786 701 
Q 3034 994 3034 1497 
Q 3034 2003 2786 2293 
Q 2538 2584 2113 2584 
z
M 3366 4563 
L 3366 3988 
Q 3128 4100 2886 4159 
Q 2644 4219 2406 4219 
Q 1781 4219 1451 3797 
Q 1122 3375 1075 2522 
Q 1259 2794 1537 2939 
Q 1816 3084 2150 3084 
Q 2853 3084 3261 2657 
Q 3669 2231 3669 1497 
Q 3669 778 3244 343 
Q 2819 -91 2113 -91 
Q 1303 -91 875 529 
Q 447 1150 447 2328 
Q 447 3434 972 4092 
Q 1497 4750 2381 4750 
Q 2619 4750 2861 4703 
Q 3103 4656 3366 4563 
z
" transform="scale(0.015625)"/>
       </defs>
       <use xlink:href="#DejaVuSans-36"/>
       <use xlink:href="#DejaVuSans-30" transform="translate(63.623047 0)"/>
      </g>
     </g>
    </g>
    <g id="ytick_5">
     <g id="line2d_23">
      <path d="M 50.87 116.703238 
L 664.519091 116.703238 
" clip-path="url(#p70e1f04213)" style="fill: none; stroke-dasharray: 2.96,1.28; stroke-dashoffset: 0; stroke: #b0b0b0; stroke-opacity: 0.5; stroke-width: 0.8"/>
     </g>
     <g id="line2d_24">
      <g>
       <use xlink:href="#m75577ad768" x="50.87" y="116.703238" style="stroke: #000000; stroke-width: 0.8"/>
      </g>
     </g>
     <g id="text_13">
      <!-- 80 -->
      <g transform="translate(31.145 120.502457) scale(0.1 -0.1)">
       <defs>
        <path id="DejaVuSans-38" d="M 2034 2216 
Q 1584 2216 1326 1975 
Q 1069 1734 1069 1313 
Q 1069 891 1326 650 
Q 1584 409 2034 409 
Q 2484 409 2743 651 
Q 3003 894 3003 1313 
Q 3003 1734 2745 1975 
Q 2488 2216 2034 2216 
z
M 1403 2484 
Q 997 2584 770 2862 
Q 544 3141 544 3541 
Q 544 4100 942 4425 
Q 1341 4750 2034 4750 
Q 2731 4750 3128 4425 
Q 3525 4100 3525 3541 
Q 3525 3141 3298 2862 
Q 3072 2584 2669 2484 
Q 3125 2378 3379 2068 
Q 3634 1759 3634 1313 
Q 3634 634 3220 271 
Q 2806 -91 2034 -91 
Q 1263 -91 848 271 
Q 434 634 434 1313 
Q 434 1759 690 2068 
Q 947 2378 1403 2484 
z
M 1172 3481 
Q 1172 3119 1398 2916 
Q 1625 2713 2034 2713 
Q 2441 2713 2670 2916 
Q 2900 3119 2900 3481 
Q 2900 3844 2670 4047 
Q 2441 4250 2034 4250 
Q 1625 4250 1398 4047 
Q 1172 3844 1172 3481 
z
" transform="scale(0.015625)"/>
       </defs>
       <use xlink:href="#DejaVuSans-38"/>
       <use xlink:href="#DejaVuSans-30" transform="translate(63.623047 0)"/>
      </g>
     </g>
    </g>
    <g id="ytick_6">
     <g id="line2d_25">
      <path d="M 50.87 57.459048 
L 664.519091 57.459048 
" clip-path="url(#p70e1f04213)" style="fill: none; stroke-dasharray: 2.96,1.28; stroke-dashoffset: 0; stroke: #b0b0b0; stroke-opacity: 0.5; stroke-width: 0.8"/>
     </g>
     <g id="line2d_26">
      <g>
       <use xlink:href="#m75577ad768" x="50.87" y="57.459048" style="stroke: #000000; stroke-width: 0.8"/>
      </g>
     </g>
     <g id="text_14">
      <!-- 100 -->
      <g transform="translate(24.7825 61.258266) scale(0.1 -0.1)">
       <use xlink:href="#DejaVuSans-31"/>
       <use xlink:href="#DejaVuSans-30" transform="translate(63.623047 0)"/>
       <use xlink:href="#DejaVuSans-30" transform="translate(127.246094 0)"/>
      </g>
     </g>
    </g>
    <g id="text_15">
     <!-- Score moyen au quiz (%) -->
     <g transform="translate(18.702813 260.898375) rotate(-90) scale(0.1 -0.1)">
      <defs>
       <path id="DejaVuSans-53" d="M 3425 4513 
L 3425 3897 
Q 3066 4069 2747 4153 
Q 2428 4238 2131 4238 
Q 1616 4238 1336 4038 
Q 1056 3838 1056 3469 
Q 1056 3159 1242 3001 
Q 1428 2844 1947 2747 
L 2328 2669 
Q 3034 2534 3370 2195 
Q 3706 1856 3706 1288 
Q 3706 609 3251 259 
Q 2797 -91 1919 -91 
Q 1588 -91 1214 -16 
Q 841 59 441 206 
L 441 856 
Q 825 641 1194 531 
Q 1563 422 1919 422 
Q 2459 422 2753 634 
Q 3047 847 3047 1241 
Q 3047 1584 2836 1778 
Q 2625 1972 2144 2069 
L 1759 2144 
Q 1053 2284 737 2584 
Q 422 2884 422 3419 
Q 422 4038 858 4394 
Q 1294 4750 2059 4750 
Q 2388 4750 2728 4690 
Q 3069 4631 3425 4513 
z
" transform="scale(0.015625)"/>
       <path id="DejaVuSans-79" d="M 2059 -325 
Q 1816 -950 1584 -1140 
Q 1353 -1331 966 -1331 
L 506 -1331 
L 506 -850 
L 844 -850 
Q 1081 -850 1212 -737 
Q 1344 -625 1503 -206 
L 1606 56 
L 191 3500 
L 800 3500 
L 1894 763 
L 2988 3500 
L 3597 3500 
L 2059 -325 
z
" transform="scale(0.015625)"/>
       <path id="DejaVuSans-7a" d="M 353 3500 
L 3084 3500 
L 3084 2975 
L 922 459 
L 3084 459 
L 3084 0 
L 275 0 
L 275 525 
L 2438 3041 
L 353 3041 
L 353 3500 
z
" transform="scale(0.015625)"/>
       <path id="DejaVuSans-25" d="M 4653 2053 
Q 4381 2053 4226 1822 
Q 4072 1591 4072 1178 
Q 4072 772 4226 539 
Q 4381 306 4653 306 
Q 4919 306 5073 539 
Q 5228 772 5228 1178 
Q 5228 1588 5073 1820 
Q 4919 2053 4653 2053 
z
M 4653 2450 
Q 5147 2450 5437 2106 
Q 5728 1763 5728 1178 
Q 5728 594 5436 251 
Q 5144 -91 4653 -91 
Q 4153 -91 3862 251 
Q 3572 594 3572 1178 
Q 3572 1766 3864 2108 
Q 4156 2450 4653 2450 
z
M 1428 4353 
Q 1159 4353 1004 4120 
Q 850 3888 850 3481 
Q 850 3069 1003 2837 
Q 1156 2606 1428 2606 
Q 1700 2606 1854 2837 
Q 2009 3069 2009 3481 
Q 2009 3884 1853 4118 
Q 1697 4353 1428 4353 
z
M 4250 4750 
L 4750 4750 
L 1831 -91 
L 1331 -91 
L 4250 4750 
z
M 1428 4750 
Q 1922 4750 2215 4408 
Q 2509 4066 2509 3481 
Q 2509 2891 2217 2550 
Q 1925 2209 1428 2209 
Q 931 2209 642 2551 
Q 353 2894 353 3481 
Q 353 4063 643 4406 
Q 934 4750 1428 4750 
z
" transform="scale(0.015625)"/>
      </defs>
      <use xlink:href="#DejaVuSans-53"/>
      <use xlink:href="#DejaVuSans-63" transform="translate(63.476562 0)"/>
      <use xlink:href="#DejaVuSans-6f" transform="translate(118.457031 0)"/>
      <use xlink:href="#DejaVuSans-72" transform="translate(179.638672 0)"/>
      <use xlink:href="#DejaVuSans-65" transform="translate(218.501953 0)"/>
      <use xlink:href="#DejaVuSans-20" transform="translate(280.025391 0)"/>
      <use xlink:href="#DejaVuSans-6d" transform="translate(311.8125 0)"/>
      <use xlink:href="#DejaVuSans-6f" transform="translate(409.224609 0)"/>
      <use xlink:href="#DejaVuSans-79" transform="translate(470.40625 0)"/>
      <use xlink:href="#DejaVuSans-65" transform="translate(529.585938 0)"/>
      <use xlink:href="#DejaVuSans-6e" transform="translate(591.109375 0)"/>
      <use xlink:href="#DejaVuSans-20" transform="translate(654.488281 0)"/>
      <use xlink:href="#DejaVuSans-61" transform="translate(686.275391 0)"/>
      <use xlink:href="#DejaVuSans-75" transform="translate(747.554688 0)"/>
      <use xlink:href="#DejaVuSans-20" transform="translate(810.933594 0)"/>
      <use xlink:href="#DejaVuSans-71" transform="translate(842.720703 0)"/>
      <use xlink:href="#DejaVuSans-75" transform="translate(906.197266 0)"/>
      <use xlink:href="#DejaVuSans-69" transform="translate(969.576172 0)"/>
      <use xlink:href="#DejaVuSans-7a" transform="translate(997.359375 0)"/>
      <use xlink:href="#DejaVuSans-20" transform="translate(1049.849609 0)"/>
      <use xlink:href="#DejaVuSans-28" transform="translate(1081.636719 0)"/>
      <use xlink:href="#DejaVuSans-25" transform="translate(1120.650391 0)"/>
      <use xlink:href="#DejaVuSans-29" transform="translate(1215.669922 0)"/>
     </g>
    </g>
   </g>
   <g id="LineCollection_1">
    <path d="M 78.76314 253.275908 
L 78.76314 110.011607 
" clip-path="url(#p70e1f04213)" style="fill: none; stroke: #93c5fd; stroke-width: 2"/>
    <path d="M 96.758715 212.729184 
L 96.758715 84.477361 
" clip-path="url(#p70e1f04213)" style="fill: none; stroke: #93c5fd; stroke-width: 2"/>
    <path d="M 114.75429 251.445263 
L 114.75429 79.939256 
" clip-path="url(#p70e1f04213)" style="fill: none; stroke: #93c5fd; stroke-width: 2"/>
    <path d="M 132.749864 244.460373 
L 132.749864 83.736808 
" clip-path="url(#p70e1f04213)" style="fill: none; stroke: #93c5fd; stroke-width: 2"/>
    <path d="M 150.745439 242.694896 
L 150.745439 85.502285 
" clip-path="url(#p70e1f04213)" style="fill: none; stroke: #93c5fd; stroke-width: 2"/>
    <path d="M 168.741013 259.283269 
L 168.741013 73.653447 
" clip-path="url(#p70e1f04213)" style="fill: none; stroke: #93c5fd; stroke-width: 2"/>
    <path d="M 186.736588 252.766408 
L 186.736588 75.430773 
" clip-path="url(#p70e1f04213)" style="fill: none; stroke: #93c5fd; stroke-width: 2"/>
    <path d="M 204.732162 231.189674 
L 204.732162 78.049366 
" clip-path="url(#p70e1f04213)" style="fill: none; stroke: #93c5fd; stroke-width: 2"/>
    <path d="M 222.727737 221.340327 
L 222.727737 83.159177 
" clip-path="url(#p70e1f04213)" style="fill: none; stroke: #93c5fd; stroke-width: 2"/>
    <path d="M 240.723311 208.887198 
L 240.723311 67.175095 
" clip-path="url(#p70e1f04213)" style="fill: none; stroke: #93c5fd; stroke-width: 2"/>
    <path d="M 258.718886 217.190272 
L 258.718886 63.611557 
" clip-path="url(#p70e1f04213)" style="fill: none; stroke: #93c5fd; stroke-width: 2"/>
    <path d="M 276.71446 222.149011 
L 276.71446 68.131889 
" clip-path="url(#p70e1f04213)" style="fill: none; stroke: #93c5fd; stroke-width: 2"/>
    <path d="M 294.710035 230.380991 
L 294.710035 69.378979 
" clip-path="url(#p70e1f04213)" style="fill: none; stroke: #93c5fd; stroke-width: 2"/>
    <path d="M 312.705609 193.451125 
L 312.705609 63.653028 
" clip-path="url(#p70e1f04213)" style="fill: none; stroke: #93c5fd; stroke-width: 2"/>
    <path d="M 330.701184 224.998656 
L 330.701184 60.542708 
" clip-path="url(#p70e1f04213)" style="fill: none; stroke: #93c5fd; stroke-width: 2"/>
    <path d="M 348.696758 222.149011 
L 348.696758 68.131889 
" clip-path="url(#p70e1f04213)" style="fill: none; stroke: #93c5fd; stroke-width: 2"/>
    <path d="M 366.692333 243.097756 
L 366.692333 66.141284 
" clip-path="url(#p70e1f04213)" style="fill: none; stroke: #93c5fd; stroke-width: 2"/>
    <path d="M 384.687907 217.859731 
L 384.687907 67.681633 
" clip-path="url(#p70e1f04213)" style="fill: none; stroke: #93c5fd; stroke-width: 2"/>
    <path d="M 402.683482 223.464232 
L 402.683482 85.774808 
" clip-path="url(#p70e1f04213)" style="fill: none; stroke: #93c5fd; stroke-width: 2"/>
    <path d="M 420.679056 219.915505 
L 420.679056 56.146789 
" clip-path="url(#p70e1f04213)" style="fill: none; stroke: #93c5fd; stroke-width: 2"/>
    <path d="M 438.674631 224.906828 
L 438.674631 51.155466 
" clip-path="url(#p70e1f04213)" style="fill: none; stroke: #93c5fd; stroke-width: 2"/>
    <path d="M 456.670205 240.242186 
L 456.670205 59.517783 
" clip-path="url(#p70e1f04213)" style="fill: none; stroke: #93c5fd; stroke-width: 2"/>
    <path d="M 474.66578 227.472101 
L 474.66578 53.329728 
" clip-path="url(#p70e1f04213)" style="fill: none; stroke: #93c5fd; stroke-width: 2"/>
    <path d="M 492.661354 213.490472 
L 492.661354 48.353216 
" clip-path="url(#p70e1f04213)" style="fill: none; stroke: #93c5fd; stroke-width: 2"/>
    <path d="M 510.656929 222.149011 
L 510.656929 68.131889 
" clip-path="url(#p70e1f04213)" style="fill: none; stroke: #93c5fd; stroke-width: 2"/>
    <path d="M 528.652503 208.161457 
L 528.652503 63.161301 
" clip-path="url(#p70e1f04213)" style="fill: none; stroke: #93c5fd; stroke-width: 2"/>
    <path d="M 546.648078 214.601301 
L 546.648078 61.460993 
" clip-path="url(#p70e1f04213)" style="fill: none; stroke: #93c5fd; stroke-width: 2"/>
    <path d="M 564.643652 232.40418 
L 564.643652 57.876719 
" clip-path="url(#p70e1f04213)" style="fill: none; stroke: #93c5fd; stroke-width: 2"/>
    <path d="M 582.639227 218.99722 
L 582.639227 61.804609 
" clip-path="url(#p70e1f04213)" style="fill: none; stroke: #93c5fd; stroke-width: 2"/>
    <path d="M 600.634801 198.534276 
L 600.634801 63.309411 
" clip-path="url(#p70e1f04213)" style="fill: none; stroke: #93c5fd; stroke-width: 2"/>
    <path d="M 618.630376 229.969244 
L 618.630376 55.57212 
" clip-path="url(#p70e1f04213)" style="fill: none; stroke: #93c5fd; stroke-width: 2"/>
    <path d="M 636.62595 178.823734 
L 636.62595 45.103672 
" clip-path="url(#p70e1f04213)" style="fill: none; stroke: #93c5fd; stroke-width: 2"/>
   </g>
   <g id="line2d_27">
    <defs>
     <path id="mdff2d3ade9" d="M 3 0 
L -3 -0 
" style="stroke: #93c5fd"/>
    </defs>
    <g clip-path="url(#p70e1f04213)">
     <use xlink:href="#mdff2d3ade9" x="78.76314" y="253.275908" style="fill: #2563eb; stroke: #93c5fd"/>
     <use xlink:href="#mdff2d3ade9" x="96.758715" y="212.729184" style="fill: #2563eb; stroke: #93c5fd"/>
     <use xlink:href="#mdff2d3ade9" x="114.75429" y="251.445263" style="fill: #2563eb; stroke: #93c5fd"/>
     <use xlink:href="#mdff2d3ade9" x="132.749864" y="244.460373" style="fill: #2563eb; stroke: #93c5fd"/>
     <use xlink:href="#mdff2d3ade9" x="150.745439" y="242.694896" style="fill: #2563eb; stroke: #93c5fd"/>
     <use xlink:href="#mdff2d3ade9" x="168.741013" y="259.283269" style="fill: #2563eb; stroke: #93c5fd"/>
     <use xlink:href="#mdff2d3ade9" x="186.736588" y="252.766408" style="fill: #2563eb; stroke: #93c5fd"/>
     <use xlink:href="#mdff2d3ade9" x="204.732162" y="231.189674" style="fill: #2563eb; stroke: #93c5fd"/>
     <use xlink:href="#mdff2d3ade9" x="222.727737" y="221.340327" style="fill: #2563eb; stroke: #93c5fd"/>
     <use xlink:href="#mdff2d3ade9" x="240.723311" y="208.887198" style="fill: #2563eb; stroke: #93c5fd"/>
     <use xlink:href="#mdff2d3ade9" x="258.718886" y="217.190272" style="fill: #2563eb; stroke: #93c5fd"/>
     <use xlink:href="#mdff2d3ade9" x="276.71446" y="222.149011" style="fill: #2563eb; stroke: #93c5fd"/>
     <use xlink:href="#mdff2d3ade9" x="294.710035" y="230.380991" style="fill: #2563eb; stroke: #93c5fd"/>
     <use xlink:href="#mdff2d3ade9" x="312.705609" y="193.451125" style="fill: #2563eb; stroke: #93c5fd"/>
     <use xlink:href="#mdff2d3ade9" x="330.701184" y="224.998656" style="fill: #2563eb; stroke: #93c5fd"/>
     <use xlink:href="#mdff2d3ade9" x="348.696758" y="222.149011" style="fill: #2563eb; stroke: #93c5fd"/>
     <use xlink:href="#mdff2d3ade9" x="366.692333" y="243.097756" style="fill: #2563eb; stroke: #93c5fd"/>
     <use xlink:href="#mdff2d3ade9" x="384.687907" y="217.859731" style="fill: #2563eb; stroke: #93c5fd"/>
     <use xlink:href="#mdff2d3ade9" x="402.683482" y="223.464232" style="fill: #2563eb; stroke: #93c5fd"/>
     <use xlink:href="#mdff2d3ade9" x="420.679056" y="219.915505" style="fill: #2563eb; stroke: #93c5fd"/>
     <use xlink:href="#mdff2d3ade9" x="438.674631" y="224.906828" style="fill: #2563eb; stroke: #93c5fd"/>
     <use xlink:href="#mdff2d3ade9" x="456.670205" y="240.242186" style="fill: #2563eb; stroke: #93c5fd"/>
     <use xlink:href="#mdff2d3ade9" x="474.66578" y="227.472101" style="fill: #2563eb; stroke: #93c5fd"/>
     <use xlink:href="#mdff2d3ade9" x="492.661354" y="213.490472" style="fill: #2563eb; stroke: #93c5fd"/>
     <use xlink:href="#mdff2d3ade9" x="510.656929" y="222.149011" style="fill: #2563eb; stroke: #93c5fd"/>
     <use xlink:href="#mdff2d3ade9" x="528.652503" y="208.161457" style="fill: #2563eb; stroke: #93c5fd"/>
     <use xlink:href="#mdff2d3ade9" x="546.648078" y="214.601301" style="fill: #2563eb; stroke: #93c5fd"/>
     <use xlink:href="#mdff2d3ade9" x="564.643652" y="232.40418" style="fill: #2563eb; stroke: #93c5fd"/>
     <use xlink:href="#mdff2d3ade9" x="582.639227" y="218.99722" style="fill: #2563eb; stroke: #93c5fd"/>
     <use xlink:href="#mdff2d3ade9" x="600.634801" y="198.534276" style="fill: #2563eb; stroke: #93c5fd"/>
     <use xlink:href="#mdff2d3ade9" x="618.630376" y="229.969244" style="fill: #2563eb; stroke: #93c5fd"/>
     <use xlink:href="#mdff2d3ade9" x="636.62595" y="178.823734" style="fill: #2563eb; stroke: #93c5fd"/>
    </g>
   </g>
   <g id="line2d_28">
    <g clip-path="url(#p70e1f04213)">
     <use xlink:href="#mdff2d3ade9" x="78.76314" y="110.011607" style="fill: #2563eb; stroke: #93c5fd"/>
     <use xlink:href="#mdff2d3ade9" x="96.758715" y="84.477361" style="fill: #2563eb; stroke: #93c5fd"/>
     <use xlink:href="#mdff2d3ade9" x="114.75429" y="79.939256" style="fill: #2563eb; stroke: #93c5fd"/>
     <use xlink:href="#mdff2d3ade9" x="132.749864" y="83.736808" style="fill: #2563eb; stroke: #93c5fd"/>
     <use xlink:href="#mdff2d3ade9" x="150.745439" y="85.502285" style="fill: #2563eb; stroke: #93c5fd"/>
     <use xlink:href="#mdff2d3ade9" x="168.741013" y="73.653447" style="fill: #2563eb; stroke: #93c5fd"/>
     <use xlink:href="#mdff2d3ade9" x="186.736588" y="75.430773" style="fill: #2563eb; stroke: #93c5fd"/>
     <use xlink:href="#mdff2d3ade9" x="204.732162" y="78.049366" style="fill: #2563eb; stroke: #93c5fd"/>
     <use xlink:href="#mdff2d3ade9" x="222.727737" y="83.159177" style="fill: #2563eb; stroke: #93c5fd"/>
     <use xlink:href="#mdff2d3ade9" x="240.723311" y="67.175095" style="fill: #2563eb; stroke: #93c5fd"/>
     <use xlink:href="#mdff2d3ade9" x="258.718886" y="63.611557" style="fill: #2563eb; stroke: #93c5fd"/>
     <use xlink:href="#mdff2d3ade9" x="276.71446" y="68.131889" style="fill: #2563eb; stroke: #93c5fd"/>
     <use xlink:href="#mdff2d3ade9" x="294.710035" y="69.378979" style="fill: #2563eb; stroke: #93c5fd"/>
     <use xlink:href="#mdff2d3ade9" x="312.705609" y="63.653028" style="fill: #2563eb; stroke: #93c5fd"/>
     <use xlink:href="#mdff2d3ade9" x="330.701184" y="60.542708" style="fill: #2563eb; stroke: #93c5fd"/>
     <use xlink:href="#mdff2d3ade9" x="348.696758" y="68.131889" style="fill: #2563eb; stroke: #93c5fd"/>
     <use xlink:href="#mdff2d3ade9" x="366.692333" y="66.141284" style="fill: #2563eb; stroke: #93c5fd"/>
     <use xlink:href="#mdff2d3ade9" x="384.687907" y="67.681633" style="fill: #2563eb; stroke: #93c5fd"/>
     <use xlink:href="#mdff2d3ade9" x="402.683482" y="85.774808" style="fill: #2563eb; stroke: #93c5fd"/>
     <use xlink:href="#mdff2d3ade9" x="420.679056" y="56.146789" style="fill: #2563eb; stroke: #93c5fd"/>
     <use xlink:href="#mdff2d3ade9" x="438.674631" y="51.155466" style="fill: #2563eb; stroke: #93c5fd"/>
     <use xlink:href="#mdff2d3ade9" x="456.670205" y="59.517783" style="fill: #2563eb; stroke: #93c5fd"/>
     <use xlink:href="#mdff2d3ade9" x="474.66578" y="53.329728" style="fill: #2563eb; stroke: #93c5fd"/>
     <use xlink:href="#mdff2d3ade9" x="492.661354" y="48.353216" style="fill: #2563eb; stroke: #93c5fd"/>
     <use xlink:href="#mdff2d3ade9" x="510.656929" y="68.131889" style="fill: #2563eb; stroke: #93c5fd"/>
     <use xlink:href="#mdff2d3ade9" x="528.652503" y="63.161301" style="fill: #2563eb; stroke: #93c5fd"/>
     <use xlink:href="#mdff2d3ade9" x="546.648078" y="61.460993" style="fill: #2563eb; stroke: #93c5fd"/>
     <use xlink:href="#mdff2d3ade9" x="564.643652" y="57.876719" style="fill: #2563eb; stroke: #93c5fd"/>
     <use xlink:href="#mdff2d3ade9" x="582.639227" y="61.804609" style="fill: #2563eb; stroke: #93c5fd"/>
     <use xlink:href="#mdff2d3ade9" x="600.634801" y="63.309411" style="fill: #2563eb; stroke: #93c5fd"/>
     <use xlink:href="#mdff2d3ade9" x="618.630376" y="55.57212" style="fill: #2563eb; stroke: #93c5fd"/>
     <use xlink:href="#mdff2d3ade9" x="636.62595" y="45.103672" style="fill: #2563eb; stroke: #93c5fd"/>
    </g>
   </g>
   <g id="line2d_29">
    <path d="M 78.76314 181.643757 
L 96.758715 148.603272 
L 114.75429 165.692259 
L 132.749864 164.09859 
L 150.745439 164.09859 
L 168.741013 166.468358 
L 186.736588 164.09859 
L 204.732162 154.61952 
L 222.727737 152.249752 
L 240.723311 138.031147 
L 258.718886 140.400914 
L 276.71446 145.14045 
L 294.710035 149.879985 
L 312.705609 128.552076 
L 330.701184 142.770682 
L 348.696758 145.14045 
L 366.692333 154.61952 
L 384.687907 142.770682 
L 402.683482 154.61952 
L 420.679056 138.031147 
L 438.674631 138.031147 
L 456.670205 149.879985 
L 474.66578 140.400914 
L 492.661354 130.921844 
L 510.656929 145.14045 
L 528.652503 135.661379 
L 546.648078 138.031147 
L 564.643652 145.14045 
L 582.639227 140.400914 
L 600.634801 130.921844 
L 618.630376 142.770682 
L 636.62595 111.963703 
" clip-path="url(#p70e1f04213)" style="fill: none; stroke: #2563eb; stroke-width: 2; stroke-linecap: square"/>
    <defs>
     <path id="mfc13f9a239" d="M 0 3 
C 0.795609 3 1.55874 2.683901 2.12132 2.12132 
C 2.683901 1.55874 3 0.795609 3 0 
C 3 -0.795609 2.683901 -1.55874 2.12132 -2.12132 
C 1.55874 -2.683901 0.795609 -3 0 -3 
C -0.795609 -3 -1.55874 -2.683901 -2.12132 -2.12132 
C -2.683901 -1.55874 -3 -0.795609 -3 0 
C -3 0.795609 -2.683901 1.55874 -2.12132 2.12132 
C -1.55874 2.683901 -0.795609 3 0 3 
z
" style="stroke: #2563eb"/>
    </defs>
    <g clip-path="url(#p70e1f04213)">
     <use xlink:href="#mfc13f9a239" x="78.76314" y="181.643757" style="fill: #2563eb; stroke: #2563eb"/>
     <use xlink:href="#mfc13f9a239" x="96.758715" y="148.603272" style="fill: #2563eb; stroke: #2563eb"/>
     <use xlink:href="#mfc13f9a239" x="114.75429" y="165.692259" style="fill: #2563eb; stroke: #2563eb"/>
     <use xlink:href="#mfc13f9a239" x="132.749864" y="164.09859" style="fill: #2563eb; stroke: #2563eb"/>
     <use xlink:href="#mfc13f9a239" x="150.745439" y="164.09859" style="fill: #2563eb; stroke: #2563eb"/>
     <use xlink:href="#mfc13f9a239" x="168.741013" y="166.468358" style="fill: #2563eb; stroke: #2563eb"/>
     <use xlink:href="#mfc13f9a239" x="186.736588" y="164.09859" style="fill: #2563eb; stroke: #2563eb"/>
     <use xlink:href="#mfc13f9a239" x="204.732162" y="154.61952" style="fill: #2563eb; stroke: #2563eb"/>
     <use xlink:href="#mfc13f9a239" x="222.727737" y="152.249752" style="fill: #2563eb; stroke: #2563eb"/>
     <use xlink:href="#mfc13f9a239" x="240.723311" y="138.031147" style="fill: #2563eb; stroke: #2563eb"/>
     <use xlink:href="#mfc13f9a239" x="258.718886" y="140.400914" style="fill: #2563eb; stroke: #2563eb"/>
     <use xlink:href="#mfc13f9a239" x="276.71446" y="145.14045" style="fill: #2563eb; stroke: #2563eb"/>
     <use xlink:href="#mfc13f9a239" x="294.710035" y="149.879985" style="fill: #2563eb; stroke: #2563eb"/>
     <use xlink:href="#mfc13f9a239" x="312.705609" y="128.552076" style="fill: #2563eb; stroke: #2563eb"/>
     <use xlink:href="#mfc13f9a239" x="330.701184" y="142.770682" style="fill: #2563eb; stroke: #2563eb"/>
     <use xlink:href="#mfc13f9a239" x="348.696758" y="145.14045" style="fill: #2563eb; stroke: #2563eb"/>
     <use xlink:href="#mfc13f9a239" x="366.692333" y="154.61952" style="fill: #2563eb; stroke: #2563eb"/>
     <use xlink:href="#mfc13f9a239" x="384.687907" y="142.770682" style="fill: #2563eb; stroke: #2563eb"/>
     <use xlink:href="#mfc13f9a239" x="402.683482" y="154.61952" style="fill: #2563eb; stroke: #2563eb"/>
     <use xlink:href="#mfc13f9a239" x="420.679056" y="138.031147" style="fill: #2563eb; stroke: #2563eb"/>
     <use xlink:href="#mfc13f9a239" x="438.674631" y="138.031147" style="fill: #2563eb; stroke: #2563eb"/>
     <use xlink:href="#mfc13f9a239" x="456.670205" y="149.879985" style="fill: #2563eb; stroke: #2563eb"/>
     <use xlink:href="#mfc13f9a239" x="474.66578" y="140.400914" style="fill: #2563eb; stroke: #2563eb"/>
     <use xlink:href="#mfc13f9a239" x="492.661354" y="130.921844" style="fill: #2563eb; stroke: #2563eb"/>
     <use xlink:href="#mfc13f9a239" x="510.656929" y="145.14045" style="fill: #2563eb; stroke: #2563eb"/>
     <use xlink:href="#mfc13f9a239" x="528.652503" y="135.661379" style="fill: #2563eb; stroke: #2563eb"/>
     <use xlink:href="#mfc13f9a239" x="546.648078" y="138.031147" style="fill: #2563eb; stroke: #2563eb"/>
     <use xlink:href="#mfc13f9a239" x="564.643652" y="145.14045" style="fill: #2563eb; stroke: #2563eb"/>
     <use xlink:href="#mfc13f9a239" x="582.639227" y="140.400914" style="fill: #2563eb; stroke: #2563eb"/>
     <use xlink:href="#mfc13f9a239" x="600.634801" y="130.921844" style="fill: #2563eb; stroke: #2563eb"/>
     <use xlink:href="#mfc13f9a239" x="618.630376" y="142.770682" style="fill: #2563eb; stroke: #2563eb"/>
     <use xlink:href="#mfc13f9a239" x="636.62595" y="111.963703" style="fill: #2563eb; stroke: #2563eb"/>
    </g>
   </g>
   <g id="patch_3">
    <path d="M 50.87 353.68 
L 50.87 42.648 
" style="fill: none; stroke: #000000; stroke-width: 0.8; stroke-linejoin: miter; stroke-linecap: square"/>
   </g>
   <g id="patch_4">
    <path d="M 664.519091 353.68 
L 664.519091 42.648 
" style="fill: none; stroke: #000000; stroke-width: 0.8; stroke-linejoin: miter; stroke-linecap: square"/>
   </g>
   <g id="patch_5">
    <path d="M 50.87 353.68 
L 664.519091 353.68 
" style="fill: none; stroke: #000000; stroke-width: 0.8; stroke-linejoin: miter; stroke-linecap: square"/>
   </g>
   <g id="patch_6">
    <path d="M 50.87 42.648 
L 664.519091 42.648 
" style="fill: none; stroke: #000000; stroke-width: 0.8; stroke-linejoin: miter; stroke-linecap: square"/>
   </g>
   <g id="patch_7">
    <path d="M 647.133302 102.757435 
Q 642.632534 106.700891 638.972682 109.907558 
" style="fill: none; stroke: #1e3a8a; stroke-linecap: round"/>
    <path d="M 643.731903 108.662644 
L 638.972682 109.907558 
L 640.832283 105.353232 
" style="fill: none; stroke: #1e3a8a; stroke-linecap: round"/>
   </g>
   <g id="text_16">
    <!-- Δ = +23.5 points -->
    <g style="fill: #1e3a8a" transform="translate(609.632589 97.152655) scale(0.11 -0.11)">
     <defs>
      <path id="DejaVuSans-394" d="M 2188 4044 
L 906 525 
L 3472 525 
L 2188 4044 
z
M 50 0 
L 1831 4666 
L 2547 4666 
L 4325 0 
L 50 0 
z
" transform="scale(0.015625)"/>
      <path id="DejaVuSans-3d" d="M 678 2906 
L 4684 2906 
L 4684 2381 
L 678 2381 
L 678 2906 
z
M 678 1631 
L 4684 1631 
L 4684 1100 
L 678 1100 
L 678 1631 
z
" transform="scale(0.015625)"/>
      <path id="DejaVuSans-2b" d="M 2944 4013 
L 2944 2272 
L 4684 2272 
L 4684 1741 
L 2944 1741 
L 2944 0 
L 2419 0 
L 2419 1741 
L 678 1741 
L 678 2272 
L 2419 2272 
L 2419 4013 
L 2944 4013 
z
" transform="scale(0.015625)"/>
      <path id="DejaVuSans-2e" d="M 684 794 
L 1344 794 
L 1344 0 
L 684 0 
L 684 794 
z
" transform="scale(0.015625)"/>
      <path id="DejaVuSans-70" d="M 1159 525 
L 1159 -1331 
L 581 -1331 
L 581 3500 
L 1159 3500 
L 1159 2969 
Q 1341 3281 1617 3432 
Q 1894 3584 2278 3584 
Q 2916 3584 3314 3078 
Q 3713 2572 3713 1747 
Q 3713 922 3314 415 
Q 2916 -91 2278 -91 
Q 1894 -91 1617 61 
Q 1341 213 1159 525 
z
M 3116 1747 
Q 3116 2381 2855 2742 
Q 2594 3103 2138 3103 
Q 1681 3103 1420 2742 
Q 1159 2381 1159 1747 
Q 1159 1113 1420 752 
Q 1681 391 2138 391 
Q 2594 391 2855 752 
Q 3116 1113 3116 1747 
z
" transform="scale(0.015625)"/>
      <path id="DejaVuSans-73" d="M 2834 3397 
L 2834 2853 
Q 2591 2978 2328 3040 
Q 2066 3103 1784 3103 
Q 1356 3103 1142 2972 
Q 928 2841 928 2578 
Q 928 2378 1081 2264 
Q 1234 2150 1697 2047 
L 1894 2003 
Q 2506 1872 2764 1633 
Q 3022 1394 3022 966 
Q 3022 478 2636 193 
Q 2250 -91 1575 -91 
Q 1294 -91 989 -36 
Q 684 19 347 128 
L 347 722 
Q 666 556 975 473 
Q 1284 391 1588 391 
Q 1994 391 2212 530 
Q 2431 669 2431 922 
Q 2431 1156 2273 1281 
Q 2116 1406 1581 1522 
L 1381 1569 
Q 847 1681 609 1914 
Q 372 2147 372 2553 
Q 372 3047 722 3315 
Q 1072 3584 1716 3584 
Q 2034 3584 2315 3537 
Q 2597 3491 2834 3397 
z
" transform="scale(0.015625)"/>
     </defs>
     <use xlink:href="#DejaVuSans-394"/>
     <use xlink:href="#DejaVuSans-20" transform="translate(68.408203 0)"/>
     <use xlink:href="#DejaVuSans-3d" transform="translate(100.195312 0)"/>
     <use xlink:href="#DejaVuSans-20" transform="translate(183.984375 0)"/>
     <use xlink:href="#DejaVuSans-2b" transform="translate(215.771484 0)"/>
     <use xlink:href="#DejaVuSans-32" transform="translate(299.560547 0)"/>
     <use xlink:href="#DejaVuSans-33" transform="translate(363.183594 0)"/>
     <use xlink:href="#DejaVuSans-2e" transform="translate(426.806641 0)"/>
     <use xlink:href="#DejaVuSans-35" transform="translate(458.59375 0)"/>
     <use xlink:href="#DejaVuSans-20" transform="translate(522.216797 0)"/>
     <use xlink:href="#DejaVuSans-70" transform="translate(554.003906 0)"/>
     <use xlink:href="#DejaVuSans-6f" transform="translate(617.480469 0)"/>
     <use xlink:href="#DejaVuSans-69" transform="translate(678.662109 0)"/>
     <use xlink:href="#DejaVuSans-6e" transform="translate(706.445312 0)"/>
     <use xlink:href="#DejaVuSans-74" transform="translate(769.824219 0)"/>
     <use xlink:href="#DejaVuSans-73" transform="translate(809.033203 0)"/>
    </g>
   </g>
   <g id="text_17">
    <!-- n par point ∈ [25, 26] -->
    <g style="fill: #6b7280" transform="translate(559.867756 338.1284) scale(0.09 -0.09)">
     <defs>
      <path id="DejaVuSans-2208" d="M 1072 1959 
Q 1094 1728 1291 1353 
Q 1522 919 1959 675 
Q 2388 438 2850 434 
L 5028 434 
L 5028 -63 
L 2850 -63 
Q 2250 -63 1695 246 
Q 1141 556 844 1106 
Q 547 1656 547 2241 
Q 547 2819 844 3369 
Q 1141 3919 1695 4231 
Q 2250 4544 2850 4544 
L 5028 4544 
L 5028 4047 
L 2850 4047 
Q 2388 4044 1959 3803 
Q 1525 3556 1291 3125 
Q 1091 2750 1063 2459 
L 5028 2459 
L 5028 1959 
L 1072 1959 
z
" transform="scale(0.015625)"/>
      <path id="DejaVuSans-5b" d="M 550 4863 
L 1875 4863 
L 1875 4416 
L 1125 4416 
L 1125 -397 
L 1875 -397 
L 1875 -844 
L 550 -844 
L 550 4863 
z
" transform="scale(0.015625)"/>
      <path id="DejaVuSans-2c" d="M 750 794 
L 1409 794 
L 1409 256 
L 897 -744 
L 494 -744 
L 750 256 
L 750 794 
z
" transform="scale(0.015625)"/>
      <path id="DejaVuSans-5d" d="M 1947 4863 
L 1947 -844 
L 622 -844 
L 622 -397 
L 1369 -397 
L 1369 4416 
L 622 4416 
L 622 4863 
L 1947 4863 
z
" transform="scale(0.015625)"/>
     </defs>
     <use xlink:href="#DejaVuSans-6e"/>
     <use xlink:href="#DejaVuSans-20" transform="translate(63.378906 0)"/>
     <use xlink:href="#DejaVuSans-70" transform="translate(95.166016 0)"/>
     <use xlink:href="#DejaVuSans-61" transform="translate(158.642578 0)"/>
     <use xlink:href="#DejaVuSans-72" transform="translate(219.921875 0)"/>
     <use xlink:href="#DejaVuSans-20" transform="translate(261.035156 0)"/>
     <use xlink:href="#DejaVuSans-70" transform="translate(292.822266 0)"/>
     <use xlink:href="#DejaVuSans-6f" transform="translate(356.298828 0)"/>
     <use xlink:href="#DejaVuSans-69" transform="translate(417.480469 0)"/>
     <use xlink:href="#DejaVuSans-6e" transform="translate(445.263672 0)"/>
     <use xlink:href="#DejaVuSans-74" transform="translate(508.642578 0)"/>
     <use xlink:href="#DejaVuSans-20" transform="translate(547.851562 0)"/>
     <use xlink:href="#DejaVuSans-2208" transform="translate(579.638672 0)"/>
     <use xlink:href="#DejaVuSans-20" transform="translate(666.748047 0)"/>
     <use xlink:href="#DejaVuSans-5b" transform="translate(698.535156 0)"/>
     <use xlink:href="#DejaVuSans-32" transform="translate(737.548828 0)"/>
     <use xlink:href="#DejaVuSans-35" transform="translate(801.171875 0)"/>
     <use xlink:href="#DejaVuSans-2c" transform="translate(864.794922 0)"/>
     <use xlink:href="#DejaVuSans-20" transform="translate(896.582031 0)"/>
     <use xlink:href="#DejaVuSans-32" transform="translate(928.369141 0)"/>
     <use xlink:href="#DejaVuSans-36" transform="translate(991.992188 0)"/>
     <use xlink:href="#DejaVuSans-5d" transform="translate(1055.615234 0)"/>
    </g>
   </g>
   <g id="text_18">
    <!-- Courbe d'apprentissage observée sur le corpus -->
    <g transform="translate(184.488842 21.365281) scale(0.13 -0.13)">
     <defs>
      <path id="DejaVuSans-Bold-43" d="M 4288 256 
Q 3956 84 3597 -3 
Q 3238 -91 2847 -91 
Q 1681 -91 1000 561 
Q 319 1213 319 2328 
Q 319 3447 1000 4098 
Q 1681 4750 2847 4750 
Q 3238 4750 3597 4662 
Q 3956 4575 4288 4403 
L 4288 3438 
Q 3953 3666 3628 3772 
Q 3303 3878 2944 3878 
Q 2300 3878 1931 3465 
Q 1563 3053 1563 2328 
Q 1563 1606 1931 1193 
Q 2300 781 2944 781 
Q 3303 781 3628 887 
Q 3953 994 4288 1222 
L 4288 256 
z
" transform="scale(0.015625)"/>
      <path id="DejaVuSans-Bold-6f" d="M 2203 2784 
Q 1831 2784 1636 2517 
Q 1441 2250 1441 1747 
Q 1441 1244 1636 976 
Q 1831 709 2203 709 
Q 2569 709 2762 976 
Q 2956 1244 2956 1747 
Q 2956 2250 2762 2517 
Q 2569 2784 2203 2784 
z
M 2203 3584 
Q 3106 3584 3614 3096 
Q 4122 2609 4122 1747 
Q 4122 884 3614 396 
Q 3106 -91 2203 -91 
Q 1297 -91 786 396 
Q 275 884 275 1747 
Q 275 2609 786 3096 
Q 1297 3584 2203 3584 
z
" transform="scale(0.015625)"/>
      <path id="DejaVuSans-Bold-75" d="M 500 1363 
L 500 3500 
L 1625 3500 
L 1625 3150 
Q 1625 2866 1622 2436 
Q 1619 2006 1619 1863 
Q 1619 1441 1641 1255 
Q 1663 1069 1716 984 
Q 1784 875 1895 815 
Q 2006 756 2150 756 
Q 2500 756 2700 1025 
Q 2900 1294 2900 1772 
L 2900 3500 
L 4019 3500 
L 4019 0 
L 2900 0 
L 2900 506 
Q 2647 200 2364 54 
Q 2081 -91 1741 -91 
Q 1134 -91 817 281 
Q 500 653 500 1363 
z
" transform="scale(0.015625)"/>
      <path id="DejaVuSans-Bold-72" d="M 3138 2547 
Q 2991 2616 2845 2648 
Q 2700 2681 2553 2681 
Q 2122 2681 1889 2404 
Q 1656 2128 1656 1613 
L 1656 0 
L 538 0 
L 538 3500 
L 1656 3500 
L 1656 2925 
Q 1872 3269 2151 3426 
Q 2431 3584 2822 3584 
Q 2878 3584 2943 3579 
Q 3009 3575 3134 3559 
L 3138 2547 
z
" transform="scale(0.015625)"/>
      <path id="DejaVuSans-Bold-62" d="M 2400 722 
Q 2759 722 2948 984 
Q 3138 1247 3138 1747 
Q 3138 2247 2948 2509 
Q 2759 2772 2400 2772 
Q 2041 2772 1848 2508 
Q 1656 2244 1656 1747 
Q 1656 1250 1848 986 
Q 2041 722 2400 722 
z
M 1656 2988 
Q 1888 3294 2169 3439 
Q 2450 3584 2816 3584 
Q 3463 3584 3878 3070 
Q 4294 2556 4294 1747 
Q 4294 938 3878 423 
Q 3463 -91 2816 -91 
Q 2450 -91 2169 54 
Q 1888 200 1656 506 
L 1656 0 
L 538 0 
L 538 4863 
L 1656 4863 
L 1656 2988 
z
" transform="scale(0.015625)"/>
      <path id="DejaVuSans-Bold-65" d="M 4031 1759 
L 4031 1441 
L 1416 1441 
Q 1456 1047 1700 850 
Q 1944 653 2381 653 
Q 2734 653 3104 758 
Q 3475 863 3866 1075 
L 3866 213 
Q 3469 63 3072 -14 
Q 2675 -91 2278 -91 
Q 1328 -91 801 392 
Q 275 875 275 1747 
Q 275 2603 792 3093 
Q 1309 3584 2216 3584 
Q 3041 3584 3536 3087 
Q 4031 2591 4031 1759 
z
M 2881 2131 
Q 2881 2450 2695 2645 
Q 2509 2841 2209 2841 
Q 1884 2841 1681 2658 
Q 1478 2475 1428 2131 
L 2881 2131 
z
" transform="scale(0.015625)"/>
      <path id="DejaVuSans-Bold-20" transform="scale(0.015625)"/>
      <path id="DejaVuSans-Bold-64" d="M 2919 2988 
L 2919 4863 
L 4044 4863 
L 4044 0 
L 2919 0 
L 2919 506 
Q 2688 197 2409 53 
Q 2131 -91 1766 -91 
Q 1119 -91 703 423 
Q 288 938 288 1747 
Q 288 2556 703 3070 
Q 1119 3584 1766 3584 
Q 2128 3584 2408 3439 
Q 2688 3294 2919 2988 
z
M 2181 722 
Q 2541 722 2730 984 
Q 2919 1247 2919 1747 
Q 2919 2247 2730 2509 
Q 2541 2772 2181 2772 
Q 1825 2772 1636 2509 
Q 1447 2247 1447 1747 
Q 1447 1247 1636 984 
Q 1825 722 2181 722 
z
" transform="scale(0.015625)"/>
      <path id="DejaVuSans-Bold-27" d="M 1350 4666 
L 1350 2931 
L 609 2931 
L 609 4666 
L 1350 4666 
z
" transform="scale(0.015625)"/>
      <path id="DejaVuSans-Bold-61" d="M 2106 1575 
Q 1756 1575 1579 1456 
Q 1403 1338 1403 1106 
Q 1403 894 1545 773 
Q 1688 653 1941 653 
Q 2256 653 2472 879 
Q 2688 1106 2688 1447 
L 2688 1575 
L 2106 1575 
z
M 3816 1997 
L 3816 0 
L 2688 0 
L 2688 519 
Q 2463 200 2181 54 
Q 1900 -91 1497 -91 
Q 953 -91 614 226 
Q 275 544 275 1050 
Q 275 1666 698 1953 
Q 1122 2241 2028 2241 
L 2688 2241 
L 2688 2328 
Q 2688 2594 2478 2717 
Q 2269 2841 1825 2841 
Q 1466 2841 1156 2769 
Q 847 2697 581 2553 
L 581 3406 
Q 941 3494 1303 3539 
Q 1666 3584 2028 3584 
Q 2975 3584 3395 3211 
Q 3816 2838 3816 1997 
z
" transform="scale(0.015625)"/>
      <path id="DejaVuSans-Bold-70" d="M 1656 506 
L 1656 -1331 
L 538 -1331 
L 538 3500 
L 1656 3500 
L 1656 2988 
Q 1888 3294 2169 3439 
Q 2450 3584 2816 3584 
Q 3463 3584 3878 3070 
Q 4294 2556 4294 1747 
Q 4294 938 3878 423 
Q 3463 -91 2816 -91 
Q 2450 -91 2169 54 
Q 1888 200 1656 506 
z
M 2400 2772 
Q 2041 2772 1848 2508 
Q 1656 2244 1656 1747 
Q 1656 1250 1848 986 
Q 2041 722 2400 722 
Q 2759 722 2948 984 
Q 3138 1247 3138 1747 
Q 3138 2247 2948 2509 
Q 2759 2772 2400 2772 
z
" transform="scale(0.015625)"/>
      <path id="DejaVuSans-Bold-6e" d="M 4056 2131 
L 4056 0 
L 2931 0 
L 2931 347 
L 2931 1631 
Q 2931 2084 2911 2256 
Q 2891 2428 2841 2509 
Q 2775 2619 2662 2680 
Q 2550 2741 2406 2741 
Q 2056 2741 1856 2470 
Q 1656 2200 1656 1722 
L 1656 0 
L 538 0 
L 538 3500 
L 1656 3500 
L 1656 2988 
Q 1909 3294 2193 3439 
Q 2478 3584 2822 3584 
Q 3428 3584 3742 3212 
Q 4056 2841 4056 2131 
z
" transform="scale(0.015625)"/>
      <path id="DejaVuSans-Bold-74" d="M 1759 4494 
L 1759 3500 
L 2913 3500 
L 2913 2700 
L 1759 2700 
L 1759 1216 
Q 1759 972 1856 886 
Q 1953 800 2241 800 
L 2816 800 
L 2816 0 
L 1856 0 
Q 1194 0 917 276 
Q 641 553 641 1216 
L 641 2700 
L 84 2700 
L 84 3500 
L 641 3500 
L 641 4494 
L 1759 4494 
z
" transform="scale(0.015625)"/>
      <path id="DejaVuSans-Bold-69" d="M 538 3500 
L 1656 3500 
L 1656 0 
L 538 0 
L 538 3500 
z
M 538 4863 
L 1656 4863 
L 1656 3950 
L 538 3950 
L 538 4863 
z
" transform="scale(0.015625)"/>
      <path id="DejaVuSans-Bold-73" d="M 3272 3391 
L 3272 2541 
Q 2913 2691 2578 2766 
Q 2244 2841 1947 2841 
Q 1628 2841 1473 2761 
Q 1319 2681 1319 2516 
Q 1319 2381 1436 2309 
Q 1553 2238 1856 2203 
L 2053 2175 
Q 2913 2066 3209 1816 
Q 3506 1566 3506 1031 
Q 3506 472 3093 190 
Q 2681 -91 1863 -91 
Q 1516 -91 1145 -36 
Q 775 19 384 128 
L 384 978 
Q 719 816 1070 734 
Q 1422 653 1784 653 
Q 2113 653 2278 743 
Q 2444 834 2444 1013 
Q 2444 1163 2330 1236 
Q 2216 1309 1875 1350 
L 1678 1375 
Q 931 1469 631 1722 
Q 331 1975 331 2491 
Q 331 3047 712 3315 
Q 1094 3584 1881 3584 
Q 2191 3584 2531 3537 
Q 2872 3491 3272 3391 
z
" transform="scale(0.015625)"/>
      <path id="DejaVuSans-Bold-67" d="M 2919 594 
Q 2688 288 2409 144 
Q 2131 0 1766 0 
Q 1125 0 706 504 
Q 288 1009 288 1791 
Q 288 2575 706 3076 
Q 1125 3578 1766 3578 
Q 2131 3578 2409 3434 
Q 2688 3291 2919 2981 
L 2919 3500 
L 4044 3500 
L 4044 353 
Q 4044 -491 3511 -936 
Q 2978 -1381 1966 -1381 
Q 1638 -1381 1331 -1331 
Q 1025 -1281 716 -1178 
L 716 -306 
Q 1009 -475 1290 -558 
Q 1572 -641 1856 -641 
Q 2406 -641 2662 -400 
Q 2919 -159 2919 353 
L 2919 594 
z
M 2181 2772 
Q 1834 2772 1640 2515 
Q 1447 2259 1447 1791 
Q 1447 1309 1634 1061 
Q 1822 813 2181 813 
Q 2531 813 2725 1069 
Q 2919 1325 2919 1791 
Q 2919 2259 2725 2515 
Q 2531 2772 2181 2772 
z
" transform="scale(0.015625)"/>
      <path id="DejaVuSans-Bold-76" d="M 97 3500 
L 1216 3500 
L 2088 1081 
L 2956 3500 
L 4078 3500 
L 2700 0 
L 1472 0 
L 97 3500 
z
" transform="scale(0.015625)"/>
      <path id="DejaVuSans-Bold-e9" d="M 4031 1759 
L 4031 1441 
L 1416 1441 
Q 1456 1047 1700 850 
Q 1944 653 2381 653 
Q 2734 653 3104 758 
Q 3475 863 3866 1075 
L 3866 213 
Q 3469 63 3072 -14 
Q 2675 -91 2278 -91 
Q 1328 -91 801 392 
Q 275 875 275 1747 
Q 275 2603 792 3093 
Q 1309 3584 2216 3584 
Q 3041 3584 3536 3087 
Q 4031 2591 4031 1759 
z
M 2881 2131 
Q 2881 2450 2695 2645 
Q 2509 2841 2209 2841 
Q 1884 2841 1681 2658 
Q 1478 2475 1428 2131 
L 2881 2131 
z
M 2702 5119 
L 3586 5119 
L 2433 3944 
L 1821 3944 
L 2702 5119 
z
" transform="scale(0.015625)"/>
      <path id="DejaVuSans-Bold-6c" d="M 538 4863 
L 1656 4863 
L 1656 0 
L 538 0 
L 538 4863 
z
" transform="scale(0.015625)"/>
      <path id="DejaVuSans-Bold-63" d="M 3366 3391 
L 3366 2478 
Q 3138 2634 2908 2709 
Q 2678 2784 2431 2784 
Q 1963 2784 1702 2511 
Q 1441 2238 1441 1747 
Q 1441 1256 1702 982 
Q 1963 709 2431 709 
Q 2694 709 2930 787 
Q 3166 866 3366 1019 
L 3366 103 
Q 3103 6 2833 -42 
Q 2563 -91 2291 -91 
Q 1344 -91 809 395 
Q 275 881 275 1747 
Q 275 2613 809 3098 
Q 1344 3584 2291 3584 
Q 2566 3584 2833 3536 
Q 3100 3488 3366 3391 
z
" transform="scale(0.015625)"/>
     </defs>
     <use xlink:href="#DejaVuSans-Bold-43"/>
     <use xlink:href="#DejaVuSans-Bold-6f" transform="translate(73.388672 0)"/>
     <use xlink:href="#DejaVuSans-Bold-75" transform="translate(142.089844 0)"/>
     <use xlink:href="#DejaVuSans-Bold-72" transform="translate(213.28125 0)"/>
     <use xlink:href="#DejaVuSans-Bold-62" transform="translate(262.597656 0)"/>
     <use xlink:href="#DejaVuSans-Bold-65" transform="translate(334.179688 0)"/>
     <use xlink:href="#DejaVuSans-Bold-20" transform="translate(402.001953 0)"/>
     <use xlink:href="#DejaVuSans-Bold-64" transform="translate(436.816406 0)"/>
     <use xlink:href="#DejaVuSans-Bold-27" transform="translate(508.398438 0)"/>
     <use xlink:href="#DejaVuSans-Bold-61" transform="translate(539.013672 0)"/>
     <use xlink:href="#DejaVuSans-Bold-70" transform="translate(606.494141 0)"/>
     <use xlink:href="#DejaVuSans-Bold-70" transform="translate(678.076172 0)"/>
     <use xlink:href="#DejaVuSans-Bold-72" transform="translate(749.658203 0)"/>
     <use xlink:href="#DejaVuSans-Bold-65" transform="translate(798.974609 0)"/>
     <use xlink:href="#DejaVuSans-Bold-6e" transform="translate(866.796875 0)"/>
     <use xlink:href="#DejaVuSans-Bold-74" transform="translate(937.988281 0)"/>
     <use xlink:href="#DejaVuSans-Bold-69" transform="translate(985.791016 0)"/>
     <use xlink:href="#DejaVuSans-Bold-73" transform="translate(1020.068359 0)"/>
     <use xlink:href="#DejaVuSans-Bold-73" transform="translate(1079.589844 0)"/>
     <use xlink:href="#DejaVuSans-Bold-61" transform="translate(1139.111328 0)"/>
     <use xlink:href="#DejaVuSans-Bold-67" transform="translate(1206.591797 0)"/>
     <use xlink:href="#DejaVuSans-Bold-65" transform="translate(1278.173828 0)"/>
     <use xlink:href="#DejaVuSans-Bold-20" transform="translate(1345.996094 0)"/>
     <use xlink:href="#DejaVuSans-Bold-6f" transform="translate(1380.810547 0)"/>
     <use xlink:href="#DejaVuSans-Bold-62" transform="translate(1449.511719 0)"/>
     <use xlink:href="#DejaVuSans-Bold-73" transform="translate(1521.09375 0)"/>
     <use xlink:href="#DejaVuSans-Bold-65" transform="translate(1580.615234 0)"/>
     <use xlink:href="#DejaVuSans-Bold-72" transform="translate(1648.4375 0)"/>
     <use xlink:href="#DejaVuSans-Bold-76" transform="translate(1697.753906 0)"/>
     <use xlink:href="#DejaVuSans-Bold-e9" transform="translate(1762.939453 0)"/>
     <use xlink:href="#DejaVuSans-Bold-65" transform="translate(1830.761719 0)"/>
     <use xlink:href="#DejaVuSans-Bold-20" transform="translate(1898.583984 0)"/>
     <use xlink:href="#DejaVuSans-Bold-73" transform="translate(1933.398438 0)"/>
     <use xlink:href="#DejaVuSans-Bold-75" transform="translate(1992.919922 0)"/>
     <use xlink:href="#DejaVuSans-Bold-72" transform="translate(2064.111328 0)"/>
     <use xlink:href="#DejaVuSans-Bold-20" transform="translate(2113.427734 0)"/>
     <use xlink:href="#DejaVuSans-Bold-6c" transform="translate(2148.242188 0)"/>
     <use xlink:href="#DejaVuSans-Bold-65" transform="translate(2182.519531 0)"/>
     <use xlink:href="#DejaVuSans-Bold-20" transform="translate(2250.341797 0)"/>
     <use xlink:href="#DejaVuSans-Bold-63" transform="translate(2285.15625 0)"/>
     <use xlink:href="#DejaVuSans-Bold-6f" transform="translate(2344.433594 0)"/>
     <use xlink:href="#DejaVuSans-Bold-72" transform="translate(2413.134766 0)"/>
     <use xlink:href="#DejaVuSans-Bold-70" transform="translate(2462.451172 0)"/>
     <use xlink:href="#DejaVuSans-Bold-75" transform="translate(2534.033203 0)"/>
     <use xlink:href="#DejaVuSans-Bold-73" transform="translate(2605.224609 0)"/>
    </g>
    <!-- (données réelles de la table quiz_results) -->
    <g transform="translate(206.309545 36.648) scale(0.13 -0.13)">
     <defs>
      <path id="DejaVuSans-Bold-28" d="M 2413 -844 
L 1484 -844 
Q 1006 -72 778 623 
Q 550 1319 550 2003 
Q 550 2688 779 3389 
Q 1009 4091 1484 4856 
L 2413 4856 
Q 2013 4116 1813 3408 
Q 1613 2700 1613 2009 
Q 1613 1319 1811 609 
Q 2009 -100 2413 -844 
z
" transform="scale(0.015625)"/>
      <path id="DejaVuSans-Bold-71" d="M 2181 2772 
Q 1825 2772 1636 2509 
Q 1447 2247 1447 1747 
Q 1447 1247 1636 984 
Q 1825 722 2181 722 
Q 2541 722 2730 984 
Q 2919 1247 2919 1747 
Q 2919 2247 2730 2509 
Q 2541 2772 2181 2772 
z
M 2919 506 
Q 2688 197 2409 53 
Q 2131 -91 1766 -91 
Q 1119 -91 703 423 
Q 288 938 288 1747 
Q 288 2556 703 3067 
Q 1119 3578 1766 3578 
Q 2131 3578 2409 3434 
Q 2688 3291 2919 2981 
L 2919 3500 
L 4044 3500 
L 4044 -1331 
L 2919 -1331 
L 2919 506 
z
" transform="scale(0.015625)"/>
      <path id="DejaVuSans-Bold-7a" d="M 366 3500 
L 3419 3500 
L 3419 2719 
L 1575 800 
L 3419 800 
L 3419 0 
L 288 0 
L 288 781 
L 2131 2700 
L 366 2700 
L 366 3500 
z
" transform="scale(0.015625)"/>
      <path id="DejaVuSans-Bold-5f" d="M 3200 -916 
L 3200 -1509 
L 0 -1509 
L 0 -916 
L 3200 -916 
z
" transform="scale(0.015625)"/>
      <path id="DejaVuSans-Bold-29" d="M 513 -844 
Q 913 -100 1113 609 
Q 1313 1319 1313 2009 
Q 1313 2700 1113 3408 
Q 913 4116 513 4856 
L 1441 4856 
Q 1916 4091 2145 3389 
Q 2375 2688 2375 2003 
Q 2375 1319 2147 623 
Q 1919 -72 1441 -844 
L 513 -844 
z
" transform="scale(0.015625)"/>
     </defs>
     <use xlink:href="#DejaVuSans-Bold-28"/>
     <use xlink:href="#DejaVuSans-Bold-64" transform="translate(45.703125 0)"/>
     <use xlink:href="#DejaVuSans-Bold-6f" transform="translate(117.285156 0)"/>
     <use xlink:href="#DejaVuSans-Bold-6e" transform="translate(185.986328 0)"/>
     <use xlink:href="#DejaVuSans-Bold-6e" transform="translate(257.177734 0)"/>
     <use xlink:href="#DejaVuSans-Bold-e9" transform="translate(328.369141 0)"/>
     <use xlink:href="#DejaVuSans-Bold-65" transform="translate(396.191406 0)"/>
     <use xlink:href="#DejaVuSans-Bold-73" transform="translate(464.013672 0)"/>
     <use xlink:href="#DejaVuSans-Bold-20" transform="translate(523.535156 0)"/>
     <use xlink:href="#DejaVuSans-Bold-72" transform="translate(558.349609 0)"/>
     <use xlink:href="#DejaVuSans-Bold-e9" transform="translate(607.666016 0)"/>
     <use xlink:href="#DejaVuSans-Bold-65" transform="translate(675.488281 0)"/>
     <use xlink:href="#DejaVuSans-Bold-6c" transform="translate(743.310547 0)"/>
     <use xlink:href="#DejaVuSans-Bold-6c" transform="translate(777.587891 0)"/>
     <use xlink:href="#DejaVuSans-Bold-65" transform="translate(811.865234 0)"/>
     <use xlink:href="#DejaVuSans-Bold-73" transform="translate(879.6875 0)"/>
     <use xlink:href="#DejaVuSans-Bold-20" transform="translate(939.208984 0)"/>
     <use xlink:href="#DejaVuSans-Bold-64" transform="translate(974.023438 0)"/>
     <use xlink:href="#DejaVuSans-Bold-65" transform="translate(1045.605469 0)"/>
     <use xlink:href="#DejaVuSans-Bold-20" transform="translate(1113.427734 0)"/>
     <use xlink:href="#DejaVuSans-Bold-6c" transform="translate(1148.242188 0)"/>
     <use xlink:href="#DejaVuSans-Bold-61" transform="translate(1182.519531 0)"/>
     <use xlink:href="#DejaVuSans-Bold-20" transform="translate(1250 0)"/>
     <use xlink:href="#DejaVuSans-Bold-74" transform="translate(1284.814453 0)"/>
     <use xlink:href="#DejaVuSans-Bold-61" transform="translate(1332.617188 0)"/>
     <use xlink:href="#DejaVuSans-Bold-62" transform="translate(1400.097656 0)"/>
     <use xlink:href="#DejaVuSans-Bold-6c" transform="translate(1471.679688 0)"/>
     <use xlink:href="#DejaVuSans-Bold-65" transform="translate(1505.957031 0)"/>
     <use xlink:href="#DejaVuSans-Bold-20" transform="translate(1573.779297 0)"/>
     <use xlink:href="#DejaVuSans-Bold-71" transform="translate(1608.59375 0)"/>
     <use xlink:href="#DejaVuSans-Bold-75" transform="translate(1680.175781 0)"/>
     <use xlink:href="#DejaVuSans-Bold-69" transform="translate(1751.367188 0)"/>
     <use xlink:href="#DejaVuSans-Bold-7a" transform="translate(1785.644531 0)"/>
     <use xlink:href="#DejaVuSans-Bold-5f" transform="translate(1843.847656 0)"/>
     <use xlink:href="#DejaVuSans-Bold-72" transform="translate(1893.847656 0)"/>
     <use xlink:href="#DejaVuSans-Bold-65" transform="translate(1943.164062 0)"/>
     <use xlink:href="#DejaVuSans-Bold-73" transform="translate(2010.986328 0)"/>
     <use xlink:href="#DejaVuSans-Bold-75" transform="translate(2070.507812 0)"/>
     <use xlink:href="#DejaVuSans-Bold-6c" transform="translate(2141.699219 0)"/>
     <use xlink:href="#DejaVuSans-Bold-74" transform="translate(2175.976562 0)"/>
     <use xlink:href="#DejaVuSans-Bold-73" transform="translate(2223.779297 0)"/>
     <use xlink:href="#DejaVuSans-Bold-29" transform="translate(2283.300781 0)"/>
    </g>
   </g>
   <g id="legend_1">
    <g id="patch_8">
     <path d="M 57.87 65.726125 
L 202.012188 65.726125 
Q 204.012188 65.726125 204.012188 63.726125 
L 204.012188 49.648 
Q 204.012188 47.648 202.012188 47.648 
L 57.87 47.648 
Q 55.87 47.648 55.87 49.648 
L 55.87 63.726125 
Q 55.87 65.726125 57.87 65.726125 
z
" style="fill: #ffffff; opacity: 0.8; stroke: #cccccc; stroke-linejoin: miter"/>
    </g>
    <g id="LineCollection_2">
     <path d="M 69.87 61.146437 
L 69.87 51.146437 
" style="fill: none; stroke: #93c5fd; stroke-width: 2"/>
    </g>
    <g id="line2d_30">
     <g>
      <use xlink:href="#mdff2d3ade9" x="69.87" y="61.146437" style="fill: #2563eb; stroke: #93c5fd"/>
     </g>
    </g>
    <g id="line2d_31">
     <g>
      <use xlink:href="#mdff2d3ade9" x="69.87" y="51.146437" style="fill: #2563eb; stroke: #93c5fd"/>
     </g>
    </g>
    <g id="line2d_32">
     <path d="M 59.87 56.146437 
L 79.87 56.146437 
" style="fill: none; stroke: #2563eb; stroke-width: 2; stroke-linecap: square"/>
    </g>
    <g id="line2d_33">
     <g>
      <use xlink:href="#mfc13f9a239" x="69.87" y="56.146437" style="fill: #2563eb; stroke: #2563eb"/>
     </g>
    </g>
    <g id="text_19">
     <!-- Moyenne ± écart-type -->
     <g transform="translate(87.87 59.646437) scale(0.1 -0.1)">
      <defs>
       <path id="DejaVuSans-4d" d="M 628 4666 
L 1569 4666 
L 2759 1491 
L 3956 4666 
L 4897 4666 
L 4897 0 
L 4281 0 
L 4281 4097 
L 3078 897 
L 2444 897 
L 1241 4097 
L 1241 0 
L 628 0 
L 628 4666 
z
" transform="scale(0.015625)"/>
       <path id="DejaVuSans-b1" d="M 2944 4013 
L 2944 2803 
L 4684 2803 
L 4684 2272 
L 2944 2272 
L 2944 1063 
L 2419 1063 
L 2419 2272 
L 678 2272 
L 678 2803 
L 2419 2803 
L 2419 4013 
L 2944 4013 
z
M 678 531 
L 4684 531 
L 4684 0 
L 678 0 
L 678 531 
z
" transform="scale(0.015625)"/>
       <path id="DejaVuSans-2d" d="M 313 2009 
L 1997 2009 
L 1997 1497 
L 313 1497 
L 313 2009 
z
" transform="scale(0.015625)"/>
      </defs>
      <use xlink:href="#DejaVuSans-4d"/>
      <use xlink:href="#DejaVuSans-6f" transform="translate(86.279297 0)"/>
      <use xlink:href="#DejaVuSans-79" transform="translate(147.460938 0)"/>
      <use xlink:href="#DejaVuSans-65" transform="translate(206.640625 0)"/>
      <use xlink:href="#DejaVuSans-6e" transform="translate(268.164062 0)"/>
      <use xlink:href="#DejaVuSans-6e" transform="translate(331.542969 0)"/>
      <use xlink:href="#DejaVuSans-65" transform="translate(394.921875 0)"/>
      <use xlink:href="#DejaVuSans-20" transform="translate(456.445312 0)"/>
      <use xlink:href="#DejaVuSans-b1" transform="translate(488.232422 0)"/>
      <use xlink:href="#DejaVuSans-20" transform="translate(572.021484 0)"/>
      <use xlink:href="#DejaVuSans-e9" transform="translate(603.808594 0)"/>
      <use xlink:href="#DejaVuSans-63" transform="translate(665.332031 0)"/>
      <use xlink:href="#DejaVuSans-61" transform="translate(720.3125 0)"/>
      <use xlink:href="#DejaVuSans-72" transform="translate(781.591797 0)"/>
      <use xlink:href="#DejaVuSans-74" transform="translate(822.705078 0)"/>
      <use xlink:href="#DejaVuSans-2d" transform="translate(861.914062 0)"/>
      <use xlink:href="#DejaVuSans-74" transform="translate(897.998047 0)"/>
      <use xlink:href="#DejaVuSans-79" transform="translate(937.207031 0)"/>
      <use xlink:href="#DejaVuSans-70" transform="translate(996.386719 0)"/>
      <use xlink:href="#DejaVuSans-65" transform="translate(1059.863281 0)"/>
     </g>
    </g>
   </g>
  </g>
 </g>
 <defs>
  <clipPath id="p70e1f04213">
   <rect x="50.87" y="42.648" width="613.649091" height="311.032"/>
  </clipPath>
 </defs>
</svg>
