<?xml version="1.0" encoding="utf-8" standalone="no"?>
<!DOCTYPE svg PUBLIC "-//W3C//DTD SVG 1.1//EN"
  "http://www.w3.org/Graphics/SVG/1.1/DTD/svg11.dtd">
<svg xmlns:xlink="http://www.w3.org/1999/xlink" width="648pt" height="396pt" viewBox="0 0 648 396" xmlns="http://www.w3.org/2000/svg" version="1.1">
 <metadata>
  <rdf:RDF xmlns:dc="http://purl.org/dc/elements/1.1/" xmlns:cc="http://creativecommons.org/ns#" xmlns:rdf="http://www.w3.org/1999/02/22-rdf-syntax-ns#">
   <cc:Work>
    <dc:type rdf:resource="http://purl.org/dc/dcmitype/StillImage"/>
    <dc:date>2026-06-06T20:49:53.050283</dc:date>
    <dc:format>image/svg+xml</dc:format>
    <dc:creator>
     <cc:Agent>
      <dc:title>Matplotlib v3.10.9, https://matplotlib.org/</dc:title>
     </cc:Agent>
    </dc:creator>
   </cc:Work>
  </rdf:RDF>
 </metadata>
 <defs>
  <style type="text/css">*{stroke-linejoin: round; stroke-linecap: butt}</style>
 </defs>
 <g id="figure_1">
  <g id="patch_1">
   <path d="M 0 396 
L 648 396 
L 648 0 
L 0 0 
z
" style="fill: #ffffff"/>
  </g>
  <g id="axes_1">
   <g id="patch_2">
    <path d="M 47.81 353.68 
L 637.2 353.68 
L 637.2 42.288 
L 47.81 42.288 
z
" style="fill: #ffffff"/>
   </g>
   <g id="matplotlib.axis_1">
    <g id="xtick_1">
     <g id="line2d_1">
      <path d="M 53.338189 353.68 
L 53.338189 42.288 
" clip-path="url(#p54b6d1ae5c)" style="fill: none; stroke-dasharray: 2.96,1.28; stroke-dashoffset: 0; stroke: #b0b0b0; stroke-opacity: 0.5; stroke-width: 0.8"/>
     </g>
     <g id="line2d_2">
      <defs>
       <path id="m4d5212de6a" d="M 0 0 
L 0 3.5 
" style="stroke: #000000; stroke-width: 0.8"/>
      </defs>
      <g>
       <use xlink:href="#m4d5212de6a" x="53.338189" y="353.68" style="stroke: #000000; stroke-width: 0.8"/>
      </g>
     </g>
     <g id="text_1">
      <!-- 0 -->
      <g transform="translate(50.156939 368.278437) scale(0.1 -0.1)">
       <defs>
        <path id="DejaVuSans-30" d="M 2034 4250 
Q 1547 4250 1301 3770 
Q 1056 3291 1056 2328 
Q 1056 1369 1301 889 
Q 1547 409 2034 409 
Q 2525 409 2770 889 
Q 3016 1369 3016 2328 
Q 3016 3291 2770 3770 
Q 2525 4250 2034 4250 
z
M 2034 4750 
Q 2819 4750 3233 4129 
Q 3647 3509 3647 2328 
Q 3647 1150 3233 529 
Q 2819 -91 2034 -91 
Q 1250 -91 836 529 
Q 422 1150 422 2328 
Q 422 3509 836 4129 
Q 1250 4750 2034 4750 
z
" transform="scale(0.015625)"/>
       </defs>
       <use xlink:href="#DejaVuSans-30"/>
      </g>
     </g>
    </g>
    <g id="xtick_2">
     <g id="line2d_3">
      <path d="M 138.387251 353.68 
L 138.387251 42.288 
" clip-path="url(#p54b6d1ae5c)" style="fill: none; stroke-dasharray: 2.96,1.28; stroke-dashoffset: 0; stroke: #b0b0b0; stroke-opacity: 0.5; stroke-width: 0.8"/>
     </g>
     <g id="line2d_4">
      <g>
       <use xlink:href="#m4d5212de6a" x="138.387251" y="353.68" style="stroke: #000000; stroke-width: 0.8"/>
      </g>
     </g>
     <g id="text_2">
      <!-- 20 -->
      <g transform="translate(132.024751 368.278437) scale(0.1 -0.1)">
       <defs>
        <path id="DejaVuSans-32" d="M 1228 531 
L 3431 531 
L 3431 0 
L 469 0 
L 469 531 
Q 828 903 1448 1529 
Q 2069 2156 2228 2338 
Q 2531 2678 2651 2914 
Q 2772 3150 2772 3378 
Q 2772 3750 2511 3984 
Q 2250 4219 1831 4219 
Q 1534 4219 1204 4116 
Q 875 4013 500 3803 
L 500 4441 
Q 881 4594 1212 4672 
Q 1544 4750 1819 4750 
Q 2544 4750 2975 4387 
Q 3406 4025 3406 3419 
Q 3406 3131 3298 2873 
Q 3191 2616 2906 2266 
Q 2828 2175 2409 1742 
Q 1991 1309 1228 531 
z
" transform="scale(0.015625)"/>
       </defs>
       <use xlink:href="#DejaVuSans-32"/>
       <use xlink:href="#DejaVuSans-30" transform="translate(63.623047 0)"/>
      </g>
     </g>
    </g>
    <g id="xtick_3">
     <g id="line2d_5">
      <path d="M 223.436313 353.68 
L 223.436313 42.288 
" clip-path="url(#p54b6d1ae5c)" style="fill: none; stroke-dasharray: 2.96,1.28; stroke-dashoffset: 0; stroke: #b0b0b0; stroke-opacity: 0.5; stroke-width: 0.8"/>
     </g>
     <g id="line2d_6">
      <g>
       <use xlink:href="#m4d5212de6a" x="223.436313" y="353.68" style="stroke: #000000; stroke-width: 0.8"/>
      </g>
     </g>
     <g id="text_3">
      <!-- 40 -->
      <g transform="translate(217.073813 368.278437) scale(0.1 -0.1)">
       <defs>
        <path id="DejaVuSans-34" d="M 2419 4116 
L 825 1625 
L 2419 1625 
L 2419 4116 
z
M 2253 4666 
L 3047 4666 
L 3047 1625 
L 3713 1625 
L 3713 1100 
L 3047 1100 
L 3047 0 
L 2419 0 
L 2419 1100 
L 313 1100 
L 313 1709 
L 2253 4666 
z
" transform="scale(0.015625)"/>
       </defs>
       <use xlink:href="#DejaVuSans-34"/>
       <use xlink:href="#DejaVuSans-30" transform="translate(63.623047 0)"/>
      </g>
     </g>
    </g>
    <g id="xtick_4">
     <g id="line2d_7">
      <path d="M 308.485375 353.68 
L 308.485375 42.288 
" clip-path="url(#p54b6d1ae5c)" style="fill: none; stroke-dasharray: 2.96,1.28; stroke-dashoffset: 0; stroke: #b0b0b0; stroke-opacity: 0.5; stroke-width: 0.8"/>
     </g>
     <g id="line2d_8">
      <g>
       <use xlink:href="#m4d5212de6a" x="308.485375" y="353.68" style="stroke: #000000; stroke-width: 0.8"/>
      </g>
     </g>
     <g id="text_4">
      <!-- 60 -->
      <g transform="translate(302.122875 368.278437) scale(0.1 -0.1)">
       <defs>
        <path id="DejaVuSans-36" d="M 2113 2584 
Q 1688 2584 1439 2293 
Q 1191 2003 1191 1497 
Q 1191 994 1439 701 
Q 1688 409 2113 409 
Q 2538 409 2786 701 
Q 3034 994 3034 1497 
Q 3034 2003 2786 2293 
Q 2538 2584 2113 2584 
z
M 3366 4563 
L 3366 3988 
Q 3128 4100 2886 4159 
Q 2644 4219 2406 4219 
Q 1781 4219 1451 3797 
Q 1122 3375 1075 2522 
Q 1259 2794 1537 2939 
Q 1816 3084 2150 3084 
Q 2853 3084 3261 2657 
Q 3669 2231 3669 1497 
Q 3669 778 3244 343 
Q 2819 -91 2113 -91 
Q 1303 -91 875 529 
Q 447 1150 447 2328 
Q 447 3434 972 4092 
Q 1497 4750 2381 4750 
Q 2619 4750 2861 4703 
Q 3103 4656 3366 4563 
z
" transform="scale(0.015625)"/>
       </defs>
       <use xlink:href="#DejaVuSans-36"/>
       <use xlink:href="#DejaVuSans-30" transform="translate(63.623047 0)"/>
      </g>
     </g>
    </g>
    <g id="xtick_5">
     <g id="line2d_9">
      <path d="M 393.534437 353.68 
L 393.534437 42.288 
" clip-path="url(#p54b6d1ae5c)" style="fill: none; stroke-dasharray: 2.96,1.28; stroke-dashoffset: 0; stroke: #b0b0b0; stroke-opacity: 0.5; stroke-width: 0.8"/>
     </g>
     <g id="line2d_10">
      <g>
       <use xlink:href="#m4d5212de6a" x="393.534437" y="353.68" style="stroke: #000000; stroke-width: 0.8"/>
      </g>
     </g>
     <g id="text_5">
      <!-- 80 -->
      <g transform="translate(387.171937 368.278437) scale(0.1 -0.1)">
       <defs>
        <path id="DejaVuSans-38" d="M 2034 2216 
Q 1584 2216 1326 1975 
Q 1069 1734 1069 1313 
Q 1069 891 1326 650 
Q 1584 409 2034 409 
Q 2484 409 2743 651 
Q 3003 894 3003 1313 
Q 3003 1734 2745 1975 
Q 2488 2216 2034 2216 
z
M 1403 2484 
Q 997 2584 770 2862 
Q 544 3141 544 3541 
Q 544 4100 942 4425 
Q 1341 4750 2034 4750 
Q 2731 4750 3128 4425 
Q 3525 4100 3525 3541 
Q 3525 3141 3298 2862 
Q 3072 2584 2669 2484 
Q 3125 2378 3379 2068 
Q 3634 1759 3634 1313 
Q 3634 634 3220 271 
Q 2806 -91 2034 -91 
Q 1263 -91 848 271 
Q 434 634 434 1313 
Q 434 1759 690 2068 
Q 947 2378 1403 2484 
z
M 1172 3481 
Q 1172 3119 1398 2916 
Q 1625 2713 2034 2713 
Q 2441 2713 2670 2916 
Q 2900 3119 2900 3481 
Q 2900 3844 2670 4047 
Q 2441 4250 2034 4250 
Q 1625 4250 1398 4047 
Q 1172 3844 1172 3481 
z
" transform="scale(0.015625)"/>
       </defs>
       <use xlink:href="#DejaVuSans-38"/>
       <use xlink:href="#DejaVuSans-30" transform="translate(63.623047 0)"/>
      </g>
     </g>
    </g>
    <g id="xtick_6">
     <g id="line2d_11">
      <path d="M 478.583499 353.68 
L 478.583499 42.288 
" clip-path="url(#p54b6d1ae5c)" style="fill: none; stroke-dasharray: 2.96,1.28; stroke-dashoffset: 0; stroke: #b0b0b0; stroke-opacity: 0.5; stroke-width: 0.8"/>
     </g>
     <g id="line2d_12">
      <g>
       <use xlink:href="#m4d5212de6a" x="478.583499" y="353.68" style="stroke: #000000; stroke-width: 0.8"/>
      </g>
     </g>
     <g id="text_6">
      <!-- 100 -->
      <g transform="translate(469.039749 368.278437) scale(0.1 -0.1)">
       <defs>
        <path id="DejaVuSans-31" d="M 794 531 
L 1825 531 
L 1825 4091 
L 703 3866 
L 703 4441 
L 1819 4666 
L 2450 4666 
L 2450 531 
L 3481 531 
L 3481 0 
L 794 0 
L 794 531 
z
" transform="scale(0.015625)"/>
       </defs>
       <use xlink:href="#DejaVuSans-31"/>
       <use xlink:href="#DejaVuSans-30" transform="translate(63.623047 0)"/>
       <use xlink:href="#DejaVuSans-30" transform="translate(127.246094 0)"/>
      </g>
     </g>
    </g>
    <g id="xtick_7">
     <g id="line2d_13">
      <path d="M 563.632561 353.68 
L 563.632561 42.288 
" clip-path="url(#p54b6d1ae5c)" style="fill: none; stroke-dasharray: 2.96,1.28; stroke-dashoffset: 0; stroke: #b0b0b0; stroke-opacity: 0.5; stroke-width: 0.8"/>
     </g>
     <g id="line2d_14">
      <g>
       <use xlink:href="#m4d5212de6a" x="563.632561" y="353.68" style="stroke: #000000; stroke-width: 0.8"/>
      </g>
     </g>
     <g id="text_7">
      <!-- 120 -->
      <g transform="translate(554.088811 368.278437) scale(0.1 -0.1)">
       <use xlink:href="#DejaVuSans-31"/>
       <use xlink:href="#DejaVuSans-32" transform="translate(63.623047 0)"/>
       <use xlink:href="#DejaVuSans-30" transform="translate(127.246094 0)"/>
      </g>
     </g>
    </g>
    <g id="text_8">
     <!-- Charge par étudiant (nombre total de lignes liées) -->
     <g transform="translate(216.9675 382.356562) scale(0.1 -0.1)">
      <defs>
       <path id="DejaVuSans-43" d="M 4122 4306 
L 4122 3641 
Q 3803 3938 3442 4084 
Q 3081 4231 2675 4231 
Q 1875 4231 1450 3742 
Q 1025 3253 1025 2328 
Q 1025 1406 1450 917 
Q 1875 428 2675 428 
Q 3081 428 3442 575 
Q 3803 722 4122 1019 
L 4122 359 
Q 3791 134 3420 21 
Q 3050 -91 2638 -91 
Q 1578 -91 968 557 
Q 359 1206 359 2328 
Q 359 3453 968 4101 
Q 1578 4750 2638 4750 
Q 3056 4750 3426 4639 
Q 3797 4528 4122 4306 
z
" transform="scale(0.015625)"/>
       <path id="DejaVuSans-68" d="M 3513 2113 
L 3513 0 
L 2938 0 
L 2938 2094 
Q 2938 2591 2744 2837 
Q 2550 3084 2163 3084 
Q 1697 3084 1428 2787 
Q 1159 2491 1159 1978 
L 1159 0 
L 581 0 
L 581 4863 
L 1159 4863 
L 1159 2956 
Q 1366 3272 1645 3428 
Q 1925 3584 2291 3584 
Q 2894 3584 3203 3211 
Q 3513 2838 3513 2113 
z
" transform="scale(0.015625)"/>
       <path id="DejaVuSans-61" d="M 2194 1759 
Q 1497 1759 1228 1600 
Q 959 1441 959 1056 
Q 959 750 1161 570 
Q 1363 391 1709 391 
Q 2188 391 2477 730 
Q 2766 1069 2766 1631 
L 2766 1759 
L 2194 1759 
z
M 3341 1997 
L 3341 0 
L 2766 0 
L 2766 531 
Q 2569 213 2275 61 
Q 1981 -91 1556 -91 
Q 1019 -91 701 211 
Q 384 513 384 1019 
Q 384 1609 779 1909 
Q 1175 2209 1959 2209 
L 2766 2209 
L 2766 2266 
Q 2766 2663 2505 2880 
Q 2244 3097 1772 3097 
Q 1472 3097 1187 3025 
Q 903 2953 641 2809 
L 641 3341 
Q 956 3463 1253 3523 
Q 1550 3584 1831 3584 
Q 2591 3584 2966 3190 
Q 3341 2797 3341 1997 
z
" transform="scale(0.015625)"/>
       <path id="DejaVuSans-72" d="M 2631 2963 
Q 2534 3019 2420 3045 
Q 2306 3072 2169 3072 
Q 1681 3072 1420 2755 
Q 1159 2438 1159 1844 
L 1159 0 
L 581 0 
L 581 3500 
L 1159 3500 
L 1159 2956 
Q 1341 3275 1631 3429 
Q 1922 3584 2338 3584 
Q 2397 3584 2469 3576 
Q 2541 3569 2628 3553 
L 2631 2963 
z
" transform="scale(0.015625)"/>
       <path id="DejaVuSans-67" d="M 2906 1791 
Q 2906 2416 2648 2759 
Q 2391 3103 1925 3103 
Q 1463 3103 1205 2759 
Q 947 2416 947 1791 
Q 947 1169 1205 825 
Q 1463 481 1925 481 
Q 2391 481 2648 825 
Q 2906 1169 2906 1791 
z
M 3481 434 
Q 3481 -459 3084 -895 
Q 2688 -1331 1869 -1331 
Q 1566 -1331 1297 -1286 
Q 1028 -1241 775 -1147 
L 775 -588 
Q 1028 -725 1275 -790 
Q 1522 -856 1778 -856 
Q 2344 -856 2625 -561 
Q 2906 -266 2906 331 
L 2906 616 
Q 2728 306 2450 153 
Q 2172 0 1784 0 
Q 1141 0 747 490 
Q 353 981 353 1791 
Q 353 2603 747 3093 
Q 1141 3584 1784 3584 
Q 2172 3584 2450 3431 
Q 2728 3278 2906 2969 
L 2906 3500 
L 3481 3500 
L 3481 434 
z
" transform="scale(0.015625)"/>
       <path id="DejaVuSans-65" d="M 3597 1894 
L 3597 1613 
L 953 1613 
Q 991 1019 1311 708 
Q 1631 397 2203 397 
Q 2534 397 2845 478 
Q 3156 559 3463 722 
L 3463 178 
Q 3153 47 2828 -22 
Q 2503 -91 2169 -91 
Q 1331 -91 842 396 
Q 353 884 353 1716 
Q 353 2575 817 3079 
Q 1281 3584 2069 3584 
Q 2775 3584 3186 3129 
Q 3597 2675 3597 1894 
z
M 3022 2063 
Q 3016 2534 2758 2815 
Q 2500 3097 2075 3097 
Q 1594 3097 1305 2825 
Q 1016 2553 972 2059 
L 3022 2063 
z
" transform="scale(0.015625)"/>
       <path id="DejaVuSans-20" transform="scale(0.015625)"/>
       <path id="DejaVuSans-70" d="M 1159 525 
L 1159 -1331 
L 581 -1331 
L 581 3500 
L 1159 3500 
L 1159 2969 
Q 1341 3281 1617 3432 
Q 1894 3584 2278 3584 
Q 2916 3584 3314 3078 
Q 3713 2572 3713 1747 
Q 3713 922 3314 415 
Q 2916 -91 2278 -91 
Q 1894 -91 1617 61 
Q 1341 213 1159 525 
z
M 3116 1747 
Q 3116 2381 2855 2742 
Q 2594 3103 2138 3103 
Q 1681 3103 1420 2742 
Q 1159 2381 1159 1747 
Q 1159 1113 1420 752 
Q 1681 391 2138 391 
Q 2594 391 2855 752 
Q 3116 1113 3116 1747 
z
" transform="scale(0.015625)"/>
       <path id="DejaVuSans-e9" d="M 3597 1894 
L 3597 1613 
L 953 1613 
Q 991 1019 1311 708 
Q 1631 397 2203 397 
Q 2534 397 2845 478 
Q 3156 559 3463 722 
L 3463 178 
Q 3153 47 2828 -22 
Q 2503 -91 2169 -91 
Q 1331 -91 842 396 
Q 353 884 353 1716 
Q 353 2575 817 3079 
Q 1281 3584 2069 3584 
Q 2775 3584 3186 3129 
Q 3597 2675 3597 1894 
z
M 3022 2063 
Q 3016 2534 2758 2815 
Q 2500 3097 2075 3097 
Q 1594 3097 1305 2825 
Q 1016 2553 972 2059 
L 3022 2063 
z
M 2466 5119 
L 3088 5119 
L 2070 3944 
L 1591 3944 
L 2466 5119 
z
" transform="scale(0.015625)"/>
       <path id="DejaVuSans-74" d="M 1172 4494 
L 1172 3500 
L 2356 3500 
L 2356 3053 
L 1172 3053 
L 1172 1153 
Q 1172 725 1289 603 
Q 1406 481 1766 481 
L 2356 481 
L 2356 0 
L 1766 0 
Q 1100 0 847 248 
Q 594 497 594 1153 
L 594 3053 
L 172 3053 
L 172 3500 
L 594 3500 
L 594 4494 
L 1172 4494 
z
" transform="scale(0.015625)"/>
       <path id="DejaVuSans-75" d="M 544 1381 
L 544 3500 
L 1119 3500 
L 1119 1403 
Q 1119 906 1312 657 
Q 1506 409 1894 409 
Q 2359 409 2629 706 
Q 2900 1003 2900 1516 
L 2900 3500 
L 3475 3500 
L 3475 0 
L 2900 0 
L 2900 538 
Q 2691 219 2414 64 
Q 2138 -91 1772 -91 
Q 1169 -91 856 284 
Q 544 659 544 1381 
z
M 1991 3584 
L 1991 3584 
z
" transform="scale(0.015625)"/>
       <path id="DejaVuSans-64" d="M 2906 2969 
L 2906 4863 
L 3481 4863 
L 3481 0 
L 2906 0 
L 2906 525 
Q 2725 213 2448 61 
Q 2172 -91 1784 -91 
Q 1150 -91 751 415 
Q 353 922 353 1747 
Q 353 2572 751 3078 
Q 1150 3584 1784 3584 
Q 2172 3584 2448 3432 
Q 2725 3281 2906 2969 
z
M 947 1747 
Q 947 1113 1208 752 
Q 1469 391 1925 391 
Q 2381 391 2643 752 
Q 2906 1113 2906 1747 
Q 2906 2381 2643 2742 
Q 2381 3103 1925 3103 
Q 1469 3103 1208 2742 
Q 947 2381 947 1747 
z
" transform="scale(0.015625)"/>
       <path id="DejaVuSans-69" d="M 603 3500 
L 1178 3500 
L 1178 0 
L 603 0 
L 603 3500 
z
M 603 4863 
L 1178 4863 
L 1178 4134 
L 603 4134 
L 603 4863 
z
" transform="scale(0.015625)"/>
       <path id="DejaVuSans-6e" d="M 3513 2113 
L 3513 0 
L 2938 0 
L 2938 2094 
Q 2938 2591 2744 2837 
Q 2550 3084 2163 3084 
Q 1697 3084 1428 2787 
Q 1159 2491 1159 1978 
L 1159 0 
L 581 0 
L 581 3500 
L 1159 3500 
L 1159 2956 
Q 1366 3272 1645 3428 
Q 1925 3584 2291 3584 
Q 2894 3584 3203 3211 
Q 3513 2838 3513 2113 
z
" transform="scale(0.015625)"/>
       <path id="DejaVuSans-28" d="M 1984 4856 
Q 1566 4138 1362 3434 
Q 1159 2731 1159 2009 
Q 1159 1288 1364 580 
Q 1569 -128 1984 -844 
L 1484 -844 
Q 1016 -109 783 600 
Q 550 1309 550 2009 
Q 550 2706 781 3412 
Q 1013 4119 1484 4856 
L 1984 4856 
z
" transform="scale(0.015625)"/>
       <path id="DejaVuSans-6f" d="M 1959 3097 
Q 1497 3097 1228 2736 
Q 959 2375 959 1747 
Q 959 1119 1226 758 
Q 1494 397 1959 397 
Q 2419 397 2687 759 
Q 2956 1122 2956 1747 
Q 2956 2369 2687 2733 
Q 2419 3097 1959 3097 
z
M 1959 3584 
Q 2709 3584 3137 3096 
Q 3566 2609 3566 1747 
Q 3566 888 3137 398 
Q 2709 -91 1959 -91 
Q 1206 -91 779 398 
Q 353 888 353 1747 
Q 353 2609 779 3096 
Q 1206 3584 1959 3584 
z
" transform="scale(0.015625)"/>
       <path id="DejaVuSans-6d" d="M 3328 2828 
Q 3544 3216 3844 3400 
Q 4144 3584 4550 3584 
Q 5097 3584 5394 3201 
Q 5691 2819 5691 2113 
L 5691 0 
L 5113 0 
L 5113 2094 
Q 5113 2597 4934 2840 
Q 4756 3084 4391 3084 
Q 3944 3084 3684 2787 
Q 3425 2491 3425 1978 
L 3425 0 
L 2847 0 
L 2847 2094 
Q 2847 2600 2669 2842 
Q 2491 3084 2119 3084 
Q 1678 3084 1418 2786 
Q 1159 2488 1159 1978 
L 1159 0 
L 581 0 
L 581 3500 
L 1159 3500 
L 1159 2956 
Q 1356 3278 1631 3431 
Q 1906 3584 2284 3584 
Q 2666 3584 2933 3390 
Q 3200 3197 3328 2828 
z
" transform="scale(0.015625)"/>
       <path id="DejaVuSans-62" d="M 3116 1747 
Q 3116 2381 2855 2742 
Q 2594 3103 2138 3103 
Q 1681 3103 1420 2742 
Q 1159 2381 1159 1747 
Q 1159 1113 1420 752 
Q 1681 391 2138 391 
Q 2594 391 2855 752 
Q 3116 1113 3116 1747 
z
M 1159 2969 
Q 1341 3281 1617 3432 
Q 1894 3584 2278 3584 
Q 2916 3584 3314 3078 
Q 3713 2572 3713 1747 
Q 3713 922 3314 415 
Q 2916 -91 2278 -91 
Q 1894 -91 1617 61 
Q 1341 213 1159 525 
L 1159 0 
L 581 0 
L 581 4863 
L 1159 4863 
L 1159 2969 
z
" transform="scale(0.015625)"/>
       <path id="DejaVuSans-6c" d="M 603 4863 
L 1178 4863 
L 1178 0 
L 603 0 
L 603 4863 
z
" transform="scale(0.015625)"/>
       <path id="DejaVuSans-73" d="M 2834 3397 
L 2834 2853 
Q 2591 2978 2328 3040 
Q 2066 3103 1784 3103 
Q 1356 3103 1142 2972 
Q 928 2841 928 2578 
Q 928 2378 1081 2264 
Q 1234 2150 1697 2047 
L 1894 2003 
Q 2506 1872 2764 1633 
Q 3022 1394 3022 966 
Q 3022 478 2636 193 
Q 2250 -91 1575 -91 
Q 1294 -91 989 -36 
Q 684 19 347 128 
L 347 722 
Q 666 556 975 473 
Q 1284 391 1588 391 
Q 1994 391 2212 530 
Q 2431 669 2431 922 
Q 2431 1156 2273 1281 
Q 2116 1406 1581 1522 
L 1381 1569 
Q 847 1681 609 1914 
Q 372 2147 372 2553 
Q 372 3047 722 3315 
Q 1072 3584 1716 3584 
Q 2034 3584 2315 3537 
Q 2597 3491 2834 3397 
z
" transform="scale(0.015625)"/>
       <path id="DejaVuSans-29" d="M 513 4856 
L 1013 4856 
Q 1481 4119 1714 3412 
Q 1947 2706 1947 2009 
Q 1947 1309 1714 600 
Q 1481 -109 1013 -844 
L 513 -844 
Q 928 -128 1133 580 
Q 1338 1288 1338 2009 
Q 1338 2731 1133 3434 
Q 928 4138 513 4856 
z
" transform="scale(0.015625)"/>
      </defs>
      <use xlink:href="#DejaVuSans-43"/>
      <use xlink:href="#DejaVuSans-68" transform="translate(69.824219 0)"/>
      <use xlink:href="#DejaVuSans-61" transform="translate(133.203125 0)"/>
      <use xlink:href="#DejaVuSans-72" transform="translate(194.482422 0)"/>
      <use xlink:href="#DejaVuSans-67" transform="translate(233.845703 0)"/>
      <use xlink:href="#DejaVuSans-65" transform="translate(297.322266 0)"/>
      <use xlink:href="#DejaVuSans-20" transform="translate(358.845703 0)"/>
      <use xlink:href="#DejaVuSans-70" transform="translate(390.632812 0)"/>
      <use xlink:href="#DejaVuSans-61" transform="translate(454.109375 0)"/>
      <use xlink:href="#DejaVuSans-72" transform="translate(515.388672 0)"/>
      <use xlink:href="#DejaVuSans-20" transform="translate(556.501953 0)"/>
      <use xlink:href="#DejaVuSans-e9" transform="translate(588.289062 0)"/>
      <use xlink:href="#DejaVuSans-74" transform="translate(649.8125 0)"/>
      <use xlink:href="#DejaVuSans-75" transform="translate(689.021484 0)"/>
      <use xlink:href="#DejaVuSans-64" transform="translate(752.400391 0)"/>
      <use xlink:href="#DejaVuSans-69" transform="translate(815.876953 0)"/>
      <use xlink:href="#DejaVuSans-61" transform="translate(843.660156 0)"/>
      <use xlink:href="#DejaVuSans-6e" transform="translate(904.939453 0)"/>
      <use xlink:href="#DejaVuSans-74" transform="translate(968.318359 0)"/>
      <use xlink:href="#DejaVuSans-20" transform="translate(1007.527344 0)"/>
      <use xlink:href="#DejaVuSans-28" transform="translate(1039.314453 0)"/>
      <use xlink:href="#DejaVuSans-6e" transform="translate(1078.328125 0)"/>
      <use xlink:href="#DejaVuSans-6f" transform="translate(1141.707031 0)"/>
      <use xlink:href="#DejaVuSans-6d" transform="translate(1202.888672 0)"/>
      <use xlink:href="#DejaVuSans-62" transform="translate(1300.300781 0)"/>
      <use xlink:href="#DejaVuSans-72" transform="translate(1363.777344 0)"/>
      <use xlink:href="#DejaVuSans-65" transform="translate(1402.640625 0)"/>
      <use xlink:href="#DejaVuSans-20" transform="translate(1464.164062 0)"/>
      <use xlink:href="#DejaVuSans-74" transform="translate(1495.951172 0)"/>
      <use xlink:href="#DejaVuSans-6f" transform="translate(1535.160156 0)"/>
      <use xlink:href="#DejaVuSans-74" transform="translate(1596.341797 0)"/>
      <use xlink:href="#DejaVuSans-61" transform="translate(1635.550781 0)"/>
      <use xlink:href="#DejaVuSans-6c" transform="translate(1696.830078 0)"/>
      <use xlink:href="#DejaVuSans-20" transform="translate(1724.613281 0)"/>
      <use xlink:href="#DejaVuSans-64" transform="translate(1756.400391 0)"/>
      <use xlink:href="#DejaVuSans-65" transform="translate(1819.876953 0)"/>
      <use xlink:href="#DejaVuSans-20" transform="translate(1881.400391 0)"/>
      <use xlink:href="#DejaVuSans-6c" transform="translate(1913.1875 0)"/>
      <use xlink:href="#DejaVuSans-69" transform="translate(1940.970703 0)"/>
      <use xlink:href="#DejaVuSans-67" transform="translate(1968.753906 0)"/>
      <use xlink:href="#DejaVuSans-6e" transform="translate(2032.230469 0)"/>
      <use xlink:href="#DejaVuSans-65" transform="translate(2095.609375 0)"/>
      <use xlink:href="#DejaVuSans-73" transform="translate(2157.132812 0)"/>
      <use xlink:href="#DejaVuSans-20" transform="translate(2209.232422 0)"/>
      <use xlink:href="#DejaVuSans-6c" transform="translate(2241.019531 0)"/>
      <use xlink:href="#DejaVuSans-69" transform="translate(2268.802734 0)"/>
      <use xlink:href="#DejaVuSans-e9" transform="translate(2296.585938 0)"/>
      <use xlink:href="#DejaVuSans-65" transform="translate(2358.109375 0)"/>
      <use xlink:href="#DejaVuSans-73" transform="translate(2419.632812 0)"/>
      <use xlink:href="#DejaVuSans-29" transform="translate(2471.732422 0)"/>
     </g>
    </g>
   </g>
   <g id="matplotlib.axis_2">
    <g id="ytick_1">
     <g id="line2d_15">
      <path d="M 47.81 308.46281 
L 637.2 308.46281 
" clip-path="url(#p54b6d1ae5c)" style="fill: none; stroke-dasharray: 2.96,1.28; stroke-dashoffset: 0; stroke: #b0b0b0; stroke-opacity: 0.5; stroke-width: 0.8"/>
     </g>
     <g id="line2d_16">
      <defs>
       <path id="m2c123c1258" d="M 0 0 
L -3.5 0 
" style="stroke: #000000; stroke-width: 0.8"/>
      </defs>
      <g>
       <use xlink:href="#m2c123c1258" x="47.81" y="308.46281" style="stroke: #000000; stroke-width: 0.8"/>
      </g>
     </g>
     <g id="text_9">
      <!-- 1.7 -->
      <g transform="translate(24.906875 312.262029) scale(0.1 -0.1)">
       <defs>
        <path id="DejaVuSans-2e" d="M 684 794 
L 1344 794 
L 1344 0 
L 684 0 
L 684 794 
z
" transform="scale(0.015625)"/>
        <path id="DejaVuSans-37" d="M 525 4666 
L 3525 4666 
L 3525 4397 
L 1831 0 
L 1172 0 
L 2766 4134 
L 525 4134 
L 525 4666 
z
" transform="scale(0.015625)"/>
       </defs>
       <use xlink:href="#DejaVuSans-31"/>
       <use xlink:href="#DejaVuSans-2e" transform="translate(63.623047 0)"/>
       <use xlink:href="#DejaVuSans-37" transform="translate(95.410156 0)"/>
      </g>
     </g>
    </g>
    <g id="ytick_2">
     <g id="line2d_17">
      <path d="M 47.81 249.853362 
L 637.2 249.853362 
" clip-path="url(#p54b6d1ae5c)" style="fill: none; stroke-dasharray: 2.96,1.28; stroke-dashoffset: 0; stroke: #b0b0b0; stroke-opacity: 0.5; stroke-width: 0.8"/>
     </g>
     <g id="line2d_18">
      <g>
       <use xlink:href="#m2c123c1258" x="47.81" y="249.853362" style="stroke: #000000; stroke-width: 0.8"/>
      </g>
     </g>
     <g id="text_10">
      <!-- 1.8 -->
      <g transform="translate(24.906875 253.652581) scale(0.1 -0.1)">
       <use xlink:href="#DejaVuSans-31"/>
       <use xlink:href="#DejaVuSans-2e" transform="translate(63.623047 0)"/>
       <use xlink:href="#DejaVuSans-38" transform="translate(95.410156 0)"/>
      </g>
     </g>
    </g>
    <g id="ytick_3">
     <g id="line2d_19">
      <path d="M 47.81 191.243913 
L 637.2 191.243913 
" clip-path="url(#p54b6d1ae5c)" style="fill: none; stroke-dasharray: 2.96,1.28; stroke-dashoffset: 0; stroke: #b0b0b0; stroke-opacity: 0.5; stroke-width: 0.8"/>
     </g>
     <g id="line2d_20">
      <g>
       <use xlink:href="#m2c123c1258" x="47.81" y="191.243913" style="stroke: #000000; stroke-width: 0.8"/>
      </g>
     </g>
     <g id="text_11">
      <!-- 1.9 -->
      <g transform="translate(24.906875 195.043132) scale(0.1 -0.1)">
       <defs>
        <path id="DejaVuSans-39" d="M 703 97 
L 703 672 
Q 941 559 1184 500 
Q 1428 441 1663 441 
Q 2288 441 2617 861 
Q 2947 1281 2994 2138 
Q 2813 1869 2534 1725 
Q 2256 1581 1919 1581 
Q 1219 1581 811 2004 
Q 403 2428 403 3163 
Q 403 3881 828 4315 
Q 1253 4750 1959 4750 
Q 2769 4750 3195 4129 
Q 3622 3509 3622 2328 
Q 3622 1225 3098 567 
Q 2575 -91 1691 -91 
Q 1453 -91 1209 -44 
Q 966 3 703 97 
z
M 1959 2075 
Q 2384 2075 2632 2365 
Q 2881 2656 2881 3163 
Q 2881 3666 2632 3958 
Q 2384 4250 1959 4250 
Q 1534 4250 1286 3958 
Q 1038 3666 1038 3163 
Q 1038 2656 1286 2365 
Q 1534 2075 1959 2075 
z
" transform="scale(0.015625)"/>
       </defs>
       <use xlink:href="#DejaVuSans-31"/>
       <use xlink:href="#DejaVuSans-2e" transform="translate(63.623047 0)"/>
       <use xlink:href="#DejaVuSans-39" transform="translate(95.410156 0)"/>
      </g>
     </g>
    </g>
    <g id="ytick_4">
     <g id="line2d_21">
      <path d="M 47.81 132.634465 
L 637.2 132.634465 
" clip-path="url(#p54b6d1ae5c)" style="fill: none; stroke-dasharray: 2.96,1.28; stroke-dashoffset: 0; stroke: #b0b0b0; stroke-opacity: 0.5; stroke-width: 0.8"/>
     </g>
     <g id="line2d_22">
      <g>
       <use xlink:href="#m2c123c1258" x="47.81" y="132.634465" style="stroke: #000000; stroke-width: 0.8"/>
      </g>
     </g>
     <g id="text_12">
      <!-- 2.0 -->
      <g transform="translate(24.906875 136.433684) scale(0.1 -0.1)">
       <use xlink:href="#DejaVuSans-32"/>
       <use xlink:href="#DejaVuSans-2e" transform="translate(63.623047 0)"/>
       <use xlink:href="#DejaVuSans-30" transform="translate(95.410156 0)"/>
      </g>
     </g>
    </g>
    <g id="ytick_5">
     <g id="line2d_23">
      <path d="M 47.81 74.025016 
L 637.2 74.025016 
" clip-path="url(#p54b6d1ae5c)" style="fill: none; stroke-dasharray: 2.96,1.28; stroke-dashoffset: 0; stroke: #b0b0b0; stroke-opacity: 0.5; stroke-width: 0.8"/>
     </g>
     <g id="line2d_24">
      <g>
       <use xlink:href="#m2c123c1258" x="47.81" y="74.025016" style="stroke: #000000; stroke-width: 0.8"/>
      </g>
     </g>
     <g id="text_13">
      <!-- 2.1 -->
      <g transform="translate(24.906875 77.824235) scale(0.1 -0.1)">
       <use xlink:href="#DejaVuSans-32"/>
       <use xlink:href="#DejaVuSans-2e" transform="translate(63.623047 0)"/>
       <use xlink:href="#DejaVuSans-31" transform="translate(95.410156 0)"/>
      </g>
     </g>
    </g>
    <g id="text_14">
     <!-- Latence médiane (ms) -->
     <g transform="translate(18.827188 254.239469) rotate(-90) scale(0.1 -0.1)">
      <defs>
       <path id="DejaVuSans-4c" d="M 628 4666 
L 1259 4666 
L 1259 531 
L 3531 531 
L 3531 0 
L 628 0 
L 628 4666 
z
" transform="scale(0.015625)"/>
       <path id="DejaVuSans-63" d="M 3122 3366 
L 3122 2828 
Q 2878 2963 2633 3030 
Q 2388 3097 2138 3097 
Q 1578 3097 1268 2742 
Q 959 2388 959 1747 
Q 959 1106 1268 751 
Q 1578 397 2138 397 
Q 2388 397 2633 464 
Q 2878 531 3122 666 
L 3122 134 
Q 2881 22 2623 -34 
Q 2366 -91 2075 -91 
Q 1284 -91 818 406 
Q 353 903 353 1747 
Q 353 2603 823 3093 
Q 1294 3584 2113 3584 
Q 2378 3584 2631 3529 
Q 2884 3475 3122 3366 
z
" transform="scale(0.015625)"/>
      </defs>
      <use xlink:href="#DejaVuSans-4c"/>
      <use xlink:href="#DejaVuSans-61" transform="translate(55.712891 0)"/>
      <use xlink:href="#DejaVuSans-74" transform="translate(116.992188 0)"/>
      <use xlink:href="#DejaVuSans-65" transform="translate(156.201172 0)"/>
      <use xlink:href="#DejaVuSans-6e" transform="translate(217.724609 0)"/>
      <use xlink:href="#DejaVuSans-63" transform="translate(281.103516 0)"/>
      <use xlink:href="#DejaVuSans-65" transform="translate(336.083984 0)"/>
      <use xlink:href="#DejaVuSans-20" transform="translate(397.607422 0)"/>
      <use xlink:href="#DejaVuSans-6d" transform="translate(429.394531 0)"/>
      <use xlink:href="#DejaVuSans-e9" transform="translate(526.806641 0)"/>
      <use xlink:href="#DejaVuSans-64" transform="translate(588.330078 0)"/>
      <use xlink:href="#DejaVuSans-69" transform="translate(651.806641 0)"/>
      <use xlink:href="#DejaVuSans-61" transform="translate(679.589844 0)"/>
      <use xlink:href="#DejaVuSans-6e" transform="translate(740.869141 0)"/>
      <use xlink:href="#DejaVuSans-65" transform="translate(804.248047 0)"/>
      <use xlink:href="#DejaVuSans-20" transform="translate(865.771484 0)"/>
      <use xlink:href="#DejaVuSans-28" transform="translate(897.558594 0)"/>
      <use xlink:href="#DejaVuSans-6d" transform="translate(936.572266 0)"/>
      <use xlink:href="#DejaVuSans-73" transform="translate(1033.984375 0)"/>
      <use xlink:href="#DejaVuSans-29" transform="translate(1086.083984 0)"/>
     </g>
    </g>
   </g>
   <g id="line2d_25">
    <path d="M 74.600455 277.031191 
L 80.012668 276.527979 
L 85.424881 276.024768 
L 90.837094 275.521557 
L 96.249307 275.018346 
L 101.66152 274.515134 
L 107.073733 274.011923 
L 112.485946 273.508712 
L 117.898159 273.005501 
L 123.310372 272.502289 
L 128.722585 271.999078 
L 134.134798 271.495867 
L 139.547011 270.992656 
L 144.959224 270.489444 
L 150.371437 269.986233 
L 155.78365 269.483022 
L 161.195863 268.97981 
L 166.608076 268.476599 
L 172.020289 267.973388 
L 177.432502 267.470177 
L 182.844715 266.966965 
L 188.256928 266.463754 
L 193.669141 265.960543 
L 199.081354 265.457332 
L 204.493567 264.95412 
L 209.905781 264.450909 
L 215.317994 263.947698 
L 220.730207 263.444486 
L 226.14242 262.941275 
L 231.554633 262.438064 
L 236.966846 261.934853 
L 242.379059 261.431641 
L 247.791272 260.92843 
L 253.203485 260.425219 
L 258.615698 259.922008 
L 264.027911 259.418796 
L 269.440124 258.915585 
L 274.852337 258.412374 
L 280.26455 257.909163 
L 285.676763 257.405951 
L 291.088976 256.90274 
L 296.501189 256.399529 
L 301.913402 255.896317 
L 307.325615 255.393106 
L 312.737828 254.889895 
L 318.150041 254.386684 
L 323.562254 253.883472 
L 328.974467 253.380261 
L 334.38668 252.87705 
L 339.798893 252.373839 
L 345.211107 251.870627 
L 350.62332 251.367416 
L 356.035533 250.864205 
L 361.447746 250.360993 
L 366.859959 249.857782 
L 372.272172 249.354571 
L 377.684385 248.85136 
L 383.096598 248.348148 
L 388.508811 247.844937 
L 393.921024 247.341726 
L 399.333237 246.838515 
L 404.74545 246.335303 
L 410.157663 245.832092 
L 415.569876 245.328881 
L 420.982089 244.82567 
L 426.394302 244.322458 
L 431.806515 243.819247 
L 437.218728 243.316036 
L 442.630941 242.812824 
L 448.043154 242.309613 
L 453.455367 241.806402 
L 458.86758 241.303191 
L 464.279793 240.799979 
L 469.692006 240.296768 
L 475.104219 239.793557 
L 480.516433 239.290346 
L 485.928646 238.787134 
L 491.340859 238.283923 
L 496.753072 237.780712 
L 502.165285 237.2775 
L 507.577498 236.774289 
L 512.989711 236.271078 
L 518.401924 235.767867 
L 523.814137 235.264655 
L 529.22635 234.761444 
L 534.638563 234.258233 
L 540.050776 233.755022 
L 545.462989 233.25181 
L 550.875202 232.748599 
L 556.287415 232.245388 
L 561.699628 231.742177 
L 567.111841 231.238965 
L 572.524054 230.735754 
L 577.936267 230.232543 
L 583.34848 229.729331 
L 588.760693 229.22612 
L 594.172906 228.722909 
L 599.585119 228.219698 
L 604.997332 227.716486 
L 610.409545 227.213275 
" clip-path="url(#p54b6d1ae5c)" style="fill: none; stroke: #dc2626; stroke-width: 1.5; stroke-linecap: square"/>
   </g>
   <g id="patch_3">
    <path d="M 47.81 353.68 
L 47.81 42.288 
" style="fill: none; stroke: #000000; stroke-width: 0.8; stroke-linejoin: miter; stroke-linecap: square"/>
   </g>
   <g id="patch_4">
    <path d="M 637.2 353.68 
L 637.2 42.288 
" style="fill: none; stroke: #000000; stroke-width: 0.8; stroke-linejoin: miter; stroke-linecap: square"/>
   </g>
   <g id="patch_5">
    <path d="M 47.81 353.68 
L 637.2 353.68 
" style="fill: none; stroke: #000000; stroke-width: 0.8; stroke-linejoin: miter; stroke-linecap: square"/>
   </g>
   <g id="patch_6">
    <path d="M 47.81 42.288 
L 637.2 42.288 
" style="fill: none; stroke: #000000; stroke-width: 0.8; stroke-linejoin: miter; stroke-linecap: square"/>
   </g>
   <g id="PathCollection_1">
    <defs>
     <path id="md6f89e20ea" d="M 0 3.162278 
C 0.838646 3.162278 1.643056 2.82908 2.236068 2.236068 
C 2.82908 1.643056 3.162278 0.838646 3.162278 0 
C 3.162278 -0.838646 2.82908 -1.643056 2.236068 -2.236068 
C 1.643056 -2.82908 0.838646 -3.162278 0 -3.162278 
C -0.838646 -3.162278 -1.643056 -2.82908 -2.236068 -2.236068 
C -2.82908 -1.643056 -3.162278 -0.838646 -3.162278 0 
C -3.162278 0.838646 -2.82908 1.643056 -2.236068 2.236068 
C -1.643056 2.82908 -0.838646 3.162278 0 3.162278 
z
" style="stroke: #1e3a8a"/>
    </defs>
    <g clip-path="url(#p54b6d1ae5c)">
     <use xlink:href="#md6f89e20ea" x="206.426501" y="260.989157" style="fill: #2563eb; stroke: #1e3a8a"/>
     <use xlink:href="#md6f89e20ea" x="329.747641" y="272.124952" style="fill: #2563eb; stroke: #1e3a8a"/>
     <use xlink:href="#md6f89e20ea" x="304.232922" y="112.121158" style="fill: #2563eb; stroke: #1e3a8a"/>
     <use xlink:href="#md6f89e20ea" x="453.068781" y="177.177646" style="fill: #2563eb; stroke: #1e3a8a"/>
     <use xlink:href="#md6f89e20ea" x="338.252547" y="85.746906" style="fill: #2563eb; stroke: #1e3a8a"/>
     <use xlink:href="#md6f89e20ea" x="525.360483" y="137.323221" style="fill: #2563eb; stroke: #1e3a8a"/>
     <use xlink:href="#md6f89e20ea" x="423.301609" y="56.442182" style="fill: #2563eb; stroke: #1e3a8a"/>
     <use xlink:href="#md6f89e20ea" x="214.931407" y="313.737661" style="fill: #2563eb; stroke: #1e3a8a"/>
     <use xlink:href="#md6f89e20ea" x="287.22311" y="320.770795" style="fill: #2563eb; stroke: #1e3a8a"/>
     <use xlink:href="#md6f89e20ea" x="580.642374" y="274.46933" style="fill: #2563eb; stroke: #1e3a8a"/>
     <use xlink:href="#md6f89e20ea" x="529.612937" y="311.979377" style="fill: #2563eb; stroke: #1e3a8a"/>
     <use xlink:href="#md6f89e20ea" x="291.475563" y="293.810448" style="fill: #2563eb; stroke: #1e3a8a"/>
     <use xlink:href="#md6f89e20ea" x="559.380108" y="310.807188" style="fill: #2563eb; stroke: #1e3a8a"/>
     <use xlink:href="#md6f89e20ea" x="291.475563" y="209.998937" style="fill: #2563eb; stroke: #1e3a8a"/>
     <use xlink:href="#md6f89e20ea" x="436.058968" y="338.353629" style="fill: #2563eb; stroke: #1e3a8a"/>
     <use xlink:href="#md6f89e20ea" x="240.446126" y="299.671393" style="fill: #2563eb; stroke: #1e3a8a"/>
     <use xlink:href="#md6f89e20ea" x="610.409545" y="304.360149" style="fill: #2563eb; stroke: #1e3a8a"/>
     <use xlink:href="#md6f89e20ea" x="410.54425" y="339.525818" style="fill: #2563eb; stroke: #1e3a8a"/>
     <use xlink:href="#md6f89e20ea" x="214.931407" y="320.770795" style="fill: #2563eb; stroke: #1e3a8a"/>
     <use xlink:href="#md6f89e20ea" x="419.049156" y="234.614905" style="fill: #2563eb; stroke: #1e3a8a"/>
     <use xlink:href="#md6f89e20ea" x="572.137468" y="156.664339" style="fill: #2563eb; stroke: #1e3a8a"/>
     <use xlink:href="#md6f89e20ea" x="538.117843" y="252.783834" style="fill: #2563eb; stroke: #1e3a8a"/>
     <use xlink:href="#md6f89e20ea" x="436.058968" y="230.512244" style="fill: #2563eb; stroke: #1e3a8a"/>
     <use xlink:href="#md6f89e20ea" x="197.921595" y="289.121692" style="fill: #2563eb; stroke: #1e3a8a"/>
     <use xlink:href="#md6f89e20ea" x="482.835952" y="250.439456" style="fill: #2563eb; stroke: #1e3a8a"/>
     <use xlink:href="#md6f89e20ea" x="74.600455" y="302.015771" style="fill: #2563eb; stroke: #1e3a8a"/>
    </g>
   </g>
   <g id="text_15">
    <!-- Scalabilité de DashboardDAO.stats(userId) -->
    <g transform="translate(197.258125 22.274625) scale(0.12 -0.12)">
     <defs>
      <path id="DejaVuSans-Bold-53" d="M 3834 4519 
L 3834 3531 
Q 3450 3703 3084 3790 
Q 2719 3878 2394 3878 
Q 1963 3878 1756 3759 
Q 1550 3641 1550 3391 
Q 1550 3203 1689 3098 
Q 1828 2994 2194 2919 
L 2706 2816 
Q 3484 2659 3812 2340 
Q 4141 2022 4141 1434 
Q 4141 663 3683 286 
Q 3225 -91 2284 -91 
Q 1841 -91 1394 -6 
Q 947 78 500 244 
L 500 1259 
Q 947 1022 1364 901 
Q 1781 781 2169 781 
Q 2563 781 2772 912 
Q 2981 1044 2981 1288 
Q 2981 1506 2839 1625 
Q 2697 1744 2272 1838 
L 1806 1941 
Q 1106 2091 782 2419 
Q 459 2747 459 3303 
Q 459 4000 909 4375 
Q 1359 4750 2203 4750 
Q 2588 4750 2994 4692 
Q 3400 4634 3834 4519 
z
" transform="scale(0.015625)"/>
      <path id="DejaVuSans-Bold-63" d="M 3366 3391 
L 3366 2478 
Q 3138 2634 2908 2709 
Q 2678 2784 2431 2784 
Q 1963 2784 1702 2511 
Q 1441 2238 1441 1747 
Q 1441 1256 1702 982 
Q 1963 709 2431 709 
Q 2694 709 2930 787 
Q 3166 866 3366 1019 
L 3366 103 
Q 3103 6 2833 -42 
Q 2563 -91 2291 -91 
Q 1344 -91 809 395 
Q 275 881 275 1747 
Q 275 2613 809 3098 
Q 1344 3584 2291 3584 
Q 2566 3584 2833 3536 
Q 3100 3488 3366 3391 
z
" transform="scale(0.015625)"/>
      <path id="DejaVuSans-Bold-61" d="M 2106 1575 
Q 1756 1575 1579 1456 
Q 1403 1338 1403 1106 
Q 1403 894 1545 773 
Q 1688 653 1941 653 
Q 2256 653 2472 879 
Q 2688 1106 2688 1447 
L 2688 1575 
L 2106 1575 
z
M 3816 1997 
L 3816 0 
L 2688 0 
L 2688 519 
Q 2463 200 2181 54 
Q 1900 -91 1497 -91 
Q 953 -91 614 226 
Q 275 544 275 1050 
Q 275 1666 698 1953 
Q 1122 2241 2028 2241 
L 2688 2241 
L 2688 2328 
Q 2688 2594 2478 2717 
Q 2269 2841 1825 2841 
Q 1466 2841 1156 2769 
Q 847 2697 581 2553 
L 581 3406 
Q 941 3494 1303 3539 
Q 1666 3584 2028 3584 
Q 2975 3584 3395 3211 
Q 3816 2838 3816 1997 
z
" transform="scale(0.015625)"/>
      <path id="DejaVuSans-Bold-6c" d="M 538 4863 
L 1656 4863 
L 1656 0 
L 538 0 
L 538 4863 
z
" transform="scale(0.015625)"/>
      <path id="DejaVuSans-Bold-62" d="M 2400 722 
Q 2759 722 2948 984 
Q 3138 1247 3138 1747 
Q 3138 2247 2948 2509 
Q 2759 2772 2400 2772 
Q 2041 2772 1848 2508 
Q 1656 2244 1656 1747 
Q 1656 1250 1848 986 
Q 2041 722 2400 722 
z
M 1656 2988 
Q 1888 3294 2169 3439 
Q 2450 3584 2816 3584 
Q 3463 3584 3878 3070 
Q 4294 2556 4294 1747 
Q 4294 938 3878 423 
Q 3463 -91 2816 -91 
Q 2450 -91 2169 54 
Q 1888 200 1656 506 
L 1656 0 
L 538 0 
L 538 4863 
L 1656 4863 
L 1656 2988 
z
" transform="scale(0.015625)"/>
      <path id="DejaVuSans-Bold-69" d="M 538 3500 
L 1656 3500 
L 1656 0 
L 538 0 
L 538 3500 
z
M 538 4863 
L 1656 4863 
L 1656 3950 
L 538 3950 
L 538 4863 
z
" transform="scale(0.015625)"/>
      <path id="DejaVuSans-Bold-74" d="M 1759 4494 
L 1759 3500 
L 2913 3500 
L 2913 2700 
L 1759 2700 
L 1759 1216 
Q 1759 972 1856 886 
Q 1953 800 2241 800 
L 2816 800 
L 2816 0 
L 1856 0 
Q 1194 0 917 276 
Q 641 553 641 1216 
L 641 2700 
L 84 2700 
L 84 3500 
L 641 3500 
L 641 4494 
L 1759 4494 
z
" transform="scale(0.015625)"/>
      <path id="DejaVuSans-Bold-e9" d="M 4031 1759 
L 4031 1441 
L 1416 1441 
Q 1456 1047 1700 850 
Q 1944 653 2381 653 
Q 2734 653 3104 758 
Q 3475 863 3866 1075 
L 3866 213 
Q 3469 63 3072 -14 
Q 2675 -91 2278 -91 
Q 1328 -91 801 392 
Q 275 875 275 1747 
Q 275 2603 792 3093 
Q 1309 3584 2216 3584 
Q 3041 3584 3536 3087 
Q 4031 2591 4031 1759 
z
M 2881 2131 
Q 2881 2450 2695 2645 
Q 2509 2841 2209 2841 
Q 1884 2841 1681 2658 
Q 1478 2475 1428 2131 
L 2881 2131 
z
M 2702 5119 
L 3586 5119 
L 2433 3944 
L 1821 3944 
L 2702 5119 
z
" transform="scale(0.015625)"/>
      <path id="DejaVuSans-Bold-20" transform="scale(0.015625)"/>
      <path id="DejaVuSans-Bold-64" d="M 2919 2988 
L 2919 4863 
L 4044 4863 
L 4044 0 
L 2919 0 
L 2919 506 
Q 2688 197 2409 53 
Q 2131 -91 1766 -91 
Q 1119 -91 703 423 
Q 288 938 288 1747 
Q 288 2556 703 3070 
Q 1119 3584 1766 3584 
Q 2128 3584 2408 3439 
Q 2688 3294 2919 2988 
z
M 2181 722 
Q 2541 722 2730 984 
Q 2919 1247 2919 1747 
Q 2919 2247 2730 2509 
Q 2541 2772 2181 2772 
Q 1825 2772 1636 2509 
Q 1447 2247 1447 1747 
Q 1447 1247 1636 984 
Q 1825 722 2181 722 
z
" transform="scale(0.015625)"/>
      <path id="DejaVuSans-Bold-65" d="M 4031 1759 
L 4031 1441 
L 1416 1441 
Q 1456 1047 1700 850 
Q 1944 653 2381 653 
Q 2734 653 3104 758 
Q 3475 863 3866 1075 
L 3866 213 
Q 3469 63 3072 -14 
Q 2675 -91 2278 -91 
Q 1328 -91 801 392 
Q 275 875 275 1747 
Q 275 2603 792 3093 
Q 1309 3584 2216 3584 
Q 3041 3584 3536 3087 
Q 4031 2591 4031 1759 
z
M 2881 2131 
Q 2881 2450 2695 2645 
Q 2509 2841 2209 2841 
Q 1884 2841 1681 2658 
Q 1478 2475 1428 2131 
L 2881 2131 
z
" transform="scale(0.015625)"/>
      <path id="DejaVuSans-Bold-44" d="M 1791 3756 
L 1791 909 
L 2222 909 
Q 2959 909 3348 1275 
Q 3738 1641 3738 2338 
Q 3738 3031 3350 3393 
Q 2963 3756 2222 3756 
L 1791 3756 
z
M 588 4666 
L 1856 4666 
Q 2919 4666 3439 4514 
Q 3959 4363 4331 4000 
Q 4659 3684 4818 3271 
Q 4978 2859 4978 2338 
Q 4978 1809 4818 1395 
Q 4659 981 4331 666 
Q 3956 303 3431 151 
Q 2906 0 1856 0 
L 588 0 
L 588 4666 
z
" transform="scale(0.015625)"/>
      <path id="DejaVuSans-Bold-73" d="M 3272 3391 
L 3272 2541 
Q 2913 2691 2578 2766 
Q 2244 2841 1947 2841 
Q 1628 2841 1473 2761 
Q 1319 2681 1319 2516 
Q 1319 2381 1436 2309 
Q 1553 2238 1856 2203 
L 2053 2175 
Q 2913 2066 3209 1816 
Q 3506 1566 3506 1031 
Q 3506 472 3093 190 
Q 2681 -91 1863 -91 
Q 1516 -91 1145 -36 
Q 775 19 384 128 
L 384 978 
Q 719 816 1070 734 
Q 1422 653 1784 653 
Q 2113 653 2278 743 
Q 2444 834 2444 1013 
Q 2444 1163 2330 1236 
Q 2216 1309 1875 1350 
L 1678 1375 
Q 931 1469 631 1722 
Q 331 1975 331 2491 
Q 331 3047 712 3315 
Q 1094 3584 1881 3584 
Q 2191 3584 2531 3537 
Q 2872 3491 3272 3391 
z
" transform="scale(0.015625)"/>
      <path id="DejaVuSans-Bold-68" d="M 4056 2131 
L 4056 0 
L 2931 0 
L 2931 347 
L 2931 1625 
Q 2931 2084 2911 2256 
Q 2891 2428 2841 2509 
Q 2775 2619 2662 2680 
Q 2550 2741 2406 2741 
Q 2056 2741 1856 2470 
Q 1656 2200 1656 1722 
L 1656 0 
L 538 0 
L 538 4863 
L 1656 4863 
L 1656 2988 
Q 1909 3294 2193 3439 
Q 2478 3584 2822 3584 
Q 3428 3584 3742 3212 
Q 4056 2841 4056 2131 
z
" transform="scale(0.015625)"/>
      <path id="DejaVuSans-Bold-6f" d="M 2203 2784 
Q 1831 2784 1636 2517 
Q 1441 2250 1441 1747 
Q 1441 1244 1636 976 
Q 1831 709 2203 709 
Q 2569 709 2762 976 
Q 2956 1244 2956 1747 
Q 2956 2250 2762 2517 
Q 2569 2784 2203 2784 
z
M 2203 3584 
Q 3106 3584 3614 3096 
Q 4122 2609 4122 1747 
Q 4122 884 3614 396 
Q 3106 -91 2203 -91 
Q 1297 -91 786 396 
Q 275 884 275 1747 
Q 275 2609 786 3096 
Q 1297 3584 2203 3584 
z
" transform="scale(0.015625)"/>
      <path id="DejaVuSans-Bold-72" d="M 3138 2547 
Q 2991 2616 2845 2648 
Q 2700 2681 2553 2681 
Q 2122 2681 1889 2404 
Q 1656 2128 1656 1613 
L 1656 0 
L 538 0 
L 538 3500 
L 1656 3500 
L 1656 2925 
Q 1872 3269 2151 3426 
Q 2431 3584 2822 3584 
Q 2878 3584 2943 3579 
Q 3009 3575 3134 3559 
L 3138 2547 
z
" transform="scale(0.015625)"/>
      <path id="DejaVuSans-Bold-41" d="M 3419 850 
L 1538 850 
L 1241 0 
L 31 0 
L 1759 4666 
L 3194 4666 
L 4922 0 
L 3713 0 
L 3419 850 
z
M 1838 1716 
L 3116 1716 
L 2478 3572 
L 1838 1716 
z
" transform="scale(0.015625)"/>
      <path id="DejaVuSans-Bold-4f" d="M 2719 3878 
Q 2169 3878 1866 3472 
Q 1563 3066 1563 2328 
Q 1563 1594 1866 1187 
Q 2169 781 2719 781 
Q 3272 781 3575 1187 
Q 3878 1594 3878 2328 
Q 3878 3066 3575 3472 
Q 3272 3878 2719 3878 
z
M 2719 4750 
Q 3844 4750 4481 4106 
Q 5119 3463 5119 2328 
Q 5119 1197 4481 553 
Q 3844 -91 2719 -91 
Q 1597 -91 958 553 
Q 319 1197 319 2328 
Q 319 3463 958 4106 
Q 1597 4750 2719 4750 
z
" transform="scale(0.015625)"/>
      <path id="DejaVuSans-Bold-2e" d="M 653 1209 
L 1778 1209 
L 1778 0 
L 653 0 
L 653 1209 
z
" transform="scale(0.015625)"/>
      <path id="DejaVuSans-Bold-28" d="M 2413 -844 
L 1484 -844 
Q 1006 -72 778 623 
Q 550 1319 550 2003 
Q 550 2688 779 3389 
Q 1009 4091 1484 4856 
L 2413 4856 
Q 2013 4116 1813 3408 
Q 1613 2700 1613 2009 
Q 1613 1319 1811 609 
Q 2009 -100 2413 -844 
z
" transform="scale(0.015625)"/>
      <path id="DejaVuSans-Bold-75" d="M 500 1363 
L 500 3500 
L 1625 3500 
L 1625 3150 
Q 1625 2866 1622 2436 
Q 1619 2006 1619 1863 
Q 1619 1441 1641 1255 
Q 1663 1069 1716 984 
Q 1784 875 1895 815 
Q 2006 756 2150 756 
Q 2500 756 2700 1025 
Q 2900 1294 2900 1772 
L 2900 3500 
L 4019 3500 
L 4019 0 
L 2900 0 
L 2900 506 
Q 2647 200 2364 54 
Q 2081 -91 1741 -91 
Q 1134 -91 817 281 
Q 500 653 500 1363 
z
" transform="scale(0.015625)"/>
      <path id="DejaVuSans-Bold-49" d="M 588 4666 
L 1791 4666 
L 1791 0 
L 588 0 
L 588 4666 
z
" transform="scale(0.015625)"/>
      <path id="DejaVuSans-Bold-29" d="M 513 -844 
Q 913 -100 1113 609 
Q 1313 1319 1313 2009 
Q 1313 2700 1113 3408 
Q 913 4116 513 4856 
L 1441 4856 
Q 1916 4091 2145 3389 
Q 2375 2688 2375 2003 
Q 2375 1319 2147 623 
Q 1919 -72 1441 -844 
L 513 -844 
z
" transform="scale(0.015625)"/>
     </defs>
     <use xlink:href="#DejaVuSans-Bold-53"/>
     <use xlink:href="#DejaVuSans-Bold-63" transform="translate(72.021484 0)"/>
     <use xlink:href="#DejaVuSans-Bold-61" transform="translate(131.298828 0)"/>
     <use xlink:href="#DejaVuSans-Bold-6c" transform="translate(198.779297 0)"/>
     <use xlink:href="#DejaVuSans-Bold-61" transform="translate(233.056641 0)"/>
     <use xlink:href="#DejaVuSans-Bold-62" transform="translate(300.537109 0)"/>
     <use xlink:href="#DejaVuSans-Bold-69" transform="translate(372.119141 0)"/>
     <use xlink:href="#DejaVuSans-Bold-6c" transform="translate(406.396484 0)"/>
     <use xlink:href="#DejaVuSans-Bold-69" transform="translate(440.673828 0)"/>
     <use xlink:href="#DejaVuSans-Bold-74" transform="translate(474.951172 0)"/>
     <use xlink:href="#DejaVuSans-Bold-e9" transform="translate(522.753906 0)"/>
     <use xlink:href="#DejaVuSans-Bold-20" transform="translate(590.576172 0)"/>
     <use xlink:href="#DejaVuSans-Bold-64" transform="translate(625.390625 0)"/>
     <use xlink:href="#DejaVuSans-Bold-65" transform="translate(696.972656 0)"/>
     <use xlink:href="#DejaVuSans-Bold-20" transform="translate(764.794922 0)"/>
     <use xlink:href="#DejaVuSans-Bold-44" transform="translate(799.609375 0)"/>
     <use xlink:href="#DejaVuSans-Bold-61" transform="translate(882.617188 0)"/>
     <use xlink:href="#DejaVuSans-Bold-73" transform="translate(950.097656 0)"/>
     <use xlink:href="#DejaVuSans-Bold-68" transform="translate(1009.619141 0)"/>
     <use xlink:href="#DejaVuSans-Bold-62" transform="translate(1080.810547 0)"/>
     <use xlink:href="#DejaVuSans-Bold-6f" transform="translate(1152.392578 0)"/>
     <use xlink:href="#DejaVuSans-Bold-61" transform="translate(1221.09375 0)"/>
     <use xlink:href="#DejaVuSans-Bold-72" transform="translate(1288.574219 0)"/>
     <use xlink:href="#DejaVuSans-Bold-64" transform="translate(1337.890625 0)"/>
     <use xlink:href="#DejaVuSans-Bold-44" transform="translate(1409.472656 0)"/>
     <use xlink:href="#DejaVuSans-Bold-41" transform="translate(1492.480469 0)"/>
     <use xlink:href="#DejaVuSans-Bold-4f" transform="translate(1569.873047 0)"/>
     <use xlink:href="#DejaVuSans-Bold-2e" transform="translate(1652.632812 0)"/>
     <use xlink:href="#DejaVuSans-Bold-73" transform="translate(1690.621094 0)"/>
     <use xlink:href="#DejaVuSans-Bold-74" transform="translate(1750.142578 0)"/>
     <use xlink:href="#DejaVuSans-Bold-61" transform="translate(1797.945312 0)"/>
     <use xlink:href="#DejaVuSans-Bold-74" transform="translate(1865.425781 0)"/>
     <use xlink:href="#DejaVuSans-Bold-73" transform="translate(1913.228516 0)"/>
     <use xlink:href="#DejaVuSans-Bold-28" transform="translate(1972.75 0)"/>
     <use xlink:href="#DejaVuSans-Bold-75" transform="translate(2018.453125 0)"/>
     <use xlink:href="#DejaVuSans-Bold-73" transform="translate(2089.644531 0)"/>
     <use xlink:href="#DejaVuSans-Bold-65" transform="translate(2149.166016 0)"/>
     <use xlink:href="#DejaVuSans-Bold-72" transform="translate(2216.988281 0)"/>
     <use xlink:href="#DejaVuSans-Bold-49" transform="translate(2266.304688 0)"/>
     <use xlink:href="#DejaVuSans-Bold-64" transform="translate(2303.511719 0)"/>
     <use xlink:href="#DejaVuSans-Bold-29" transform="translate(2375.09375 0)"/>
    </g>
    <!-- Latence médiane vs charge par étudiant (matériaux + quiz + erreurs) -->
    <g transform="translate(106.155625 36.288) scale(0.12 -0.12)">
     <defs>
      <path id="DejaVuSans-Bold-4c" d="M 588 4666 
L 1791 4666 
L 1791 909 
L 3903 909 
L 3903 0 
L 588 0 
L 588 4666 
z
" transform="scale(0.015625)"/>
      <path id="DejaVuSans-Bold-6e" d="M 4056 2131 
L 4056 0 
L 2931 0 
L 2931 347 
L 2931 1631 
Q 2931 2084 2911 2256 
Q 2891 2428 2841 2509 
Q 2775 2619 2662 2680 
Q 2550 2741 2406 2741 
Q 2056 2741 1856 2470 
Q 1656 2200 1656 1722 
L 1656 0 
L 538 0 
L 538 3500 
L 1656 3500 
L 1656 2988 
Q 1909 3294 2193 3439 
Q 2478 3584 2822 3584 
Q 3428 3584 3742 3212 
Q 4056 2841 4056 2131 
z
" transform="scale(0.015625)"/>
      <path id="DejaVuSans-Bold-6d" d="M 3781 2919 
Q 3994 3244 4286 3414 
Q 4578 3584 4928 3584 
Q 5531 3584 5847 3212 
Q 6163 2841 6163 2131 
L 6163 0 
L 5038 0 
L 5038 1825 
Q 5041 1866 5042 1909 
Q 5044 1953 5044 2034 
Q 5044 2406 4934 2573 
Q 4825 2741 4581 2741 
Q 4263 2741 4089 2478 
Q 3916 2216 3909 1719 
L 3909 0 
L 2784 0 
L 2784 1825 
Q 2784 2406 2684 2573 
Q 2584 2741 2328 2741 
Q 2006 2741 1831 2477 
Q 1656 2213 1656 1722 
L 1656 0 
L 531 0 
L 531 3500 
L 1656 3500 
L 1656 2988 
Q 1863 3284 2130 3434 
Q 2397 3584 2719 3584 
Q 3081 3584 3359 3409 
Q 3638 3234 3781 2919 
z
" transform="scale(0.015625)"/>
      <path id="DejaVuSans-Bold-76" d="M 97 3500 
L 1216 3500 
L 2088 1081 
L 2956 3500 
L 4078 3500 
L 2700 0 
L 1472 0 
L 97 3500 
z
" transform="scale(0.015625)"/>
      <path id="DejaVuSans-Bold-67" d="M 2919 594 
Q 2688 288 2409 144 
Q 2131 0 1766 0 
Q 1125 0 706 504 
Q 288 1009 288 1791 
Q 288 2575 706 3076 
Q 1125 3578 1766 3578 
Q 2131 3578 2409 3434 
Q 2688 3291 2919 2981 
L 2919 3500 
L 4044 3500 
L 4044 353 
Q 4044 -491 3511 -936 
Q 2978 -1381 1966 -1381 
Q 1638 -1381 1331 -1331 
Q 1025 -1281 716 -1178 
L 716 -306 
Q 1009 -475 1290 -558 
Q 1572 -641 1856 -641 
Q 2406 -641 2662 -400 
Q 2919 -159 2919 353 
L 2919 594 
z
M 2181 2772 
Q 1834 2772 1640 2515 
Q 1447 2259 1447 1791 
Q 1447 1309 1634 1061 
Q 1822 813 2181 813 
Q 2531 813 2725 1069 
Q 2919 1325 2919 1791 
Q 2919 2259 2725 2515 
Q 2531 2772 2181 2772 
z
" transform="scale(0.015625)"/>
      <path id="DejaVuSans-Bold-70" d="M 1656 506 
L 1656 -1331 
L 538 -1331 
L 538 3500 
L 1656 3500 
L 1656 2988 
Q 1888 3294 2169 3439 
Q 2450 3584 2816 3584 
Q 3463 3584 3878 3070 
Q 4294 2556 4294 1747 
Q 4294 938 3878 423 
Q 3463 -91 2816 -91 
Q 2450 -91 2169 54 
Q 1888 200 1656 506 
z
M 2400 2772 
Q 2041 2772 1848 2508 
Q 1656 2244 1656 1747 
Q 1656 1250 1848 986 
Q 2041 722 2400 722 
Q 2759 722 2948 984 
Q 3138 1247 3138 1747 
Q 3138 2247 2948 2509 
Q 2759 2772 2400 2772 
z
" transform="scale(0.015625)"/>
      <path id="DejaVuSans-Bold-78" d="M 1422 1791 
L 159 3500 
L 1344 3500 
L 2059 2463 
L 2784 3500 
L 3969 3500 
L 2706 1797 
L 4031 0 
L 2847 0 
L 2059 1106 
L 1281 0 
L 97 0 
L 1422 1791 
z
" transform="scale(0.015625)"/>
      <path id="DejaVuSans-Bold-2b" d="M 3053 4013 
L 3053 2375 
L 4684 2375 
L 4684 1638 
L 3053 1638 
L 3053 0 
L 2309 0 
L 2309 1638 
L 678 1638 
L 678 2375 
L 2309 2375 
L 2309 4013 
L 3053 4013 
z
" transform="scale(0.015625)"/>
      <path id="DejaVuSans-Bold-71" d="M 2181 2772 
Q 1825 2772 1636 2509 
Q 1447 2247 1447 1747 
Q 1447 1247 1636 984 
Q 1825 722 2181 722 
Q 2541 722 2730 984 
Q 2919 1247 2919 1747 
Q 2919 2247 2730 2509 
Q 2541 2772 2181 2772 
z
M 2919 506 
Q 2688 197 2409 53 
Q 2131 -91 1766 -91 
Q 1119 -91 703 423 
Q 288 938 288 1747 
Q 288 2556 703 3067 
Q 1119 3578 1766 3578 
Q 2131 3578 2409 3434 
Q 2688 3291 2919 2981 
L 2919 3500 
L 4044 3500 
L 4044 -1331 
L 2919 -1331 
L 2919 506 
z
" transform="scale(0.015625)"/>
      <path id="DejaVuSans-Bold-7a" d="M 366 3500 
L 3419 3500 
L 3419 2719 
L 1575 800 
L 3419 800 
L 3419 0 
L 288 0 
L 288 781 
L 2131 2700 
L 366 2700 
L 366 3500 
z
" transform="scale(0.015625)"/>
     </defs>
     <use xlink:href="#DejaVuSans-Bold-4c"/>
     <use xlink:href="#DejaVuSans-Bold-61" transform="translate(63.720703 0)"/>
     <use xlink:href="#DejaVuSans-Bold-74" transform="translate(131.201172 0)"/>
     <use xlink:href="#DejaVuSans-Bold-65" transform="translate(179.003906 0)"/>
     <use xlink:href="#DejaVuSans-Bold-6e" transform="translate(246.826172 0)"/>
     <use xlink:href="#DejaVuSans-Bold-63" transform="translate(318.017578 0)"/>
     <use xlink:href="#DejaVuSans-Bold-65" transform="translate(377.294922 0)"/>
     <use xlink:href="#DejaVuSans-Bold-20" transform="translate(445.117188 0)"/>
     <use xlink:href="#DejaVuSans-Bold-6d" transform="translate(479.931641 0)"/>
     <use xlink:href="#DejaVuSans-Bold-e9" transform="translate(584.130859 0)"/>
     <use xlink:href="#DejaVuSans-Bold-64" transform="translate(651.953125 0)"/>
     <use xlink:href="#DejaVuSans-Bold-69" transform="translate(723.535156 0)"/>
     <use xlink:href="#DejaVuSans-Bold-61" transform="translate(757.8125 0)"/>
     <use xlink:href="#DejaVuSans-Bold-6e" transform="translate(825.292969 0)"/>
     <use xlink:href="#DejaVuSans-Bold-65" transform="translate(896.484375 0)"/>
     <use xlink:href="#DejaVuSans-Bold-20" transform="translate(964.306641 0)"/>
     <use xlink:href="#DejaVuSans-Bold-76" transform="translate(999.121094 0)"/>
     <use xlink:href="#DejaVuSans-Bold-73" transform="translate(1064.306641 0)"/>
     <use xlink:href="#DejaVuSans-Bold-20" transform="translate(1123.828125 0)"/>
     <use xlink:href="#DejaVuSans-Bold-63" transform="translate(1158.642578 0)"/>
     <use xlink:href="#DejaVuSans-Bold-68" transform="translate(1217.919922 0)"/>
     <use xlink:href="#DejaVuSans-Bold-61" transform="translate(1289.111328 0)"/>
     <use xlink:href="#DejaVuSans-Bold-72" transform="translate(1356.591797 0)"/>
     <use xlink:href="#DejaVuSans-Bold-67" transform="translate(1405.908203 0)"/>
     <use xlink:href="#DejaVuSans-Bold-65" transform="translate(1477.490234 0)"/>
     <use xlink:href="#DejaVuSans-Bold-20" transform="translate(1545.3125 0)"/>
     <use xlink:href="#DejaVuSans-Bold-70" transform="translate(1580.126953 0)"/>
     <use xlink:href="#DejaVuSans-Bold-61" transform="translate(1651.708984 0)"/>
     <use xlink:href="#DejaVuSans-Bold-72" transform="translate(1719.189453 0)"/>
     <use xlink:href="#DejaVuSans-Bold-20" transform="translate(1768.505859 0)"/>
     <use xlink:href="#DejaVuSans-Bold-e9" transform="translate(1803.320312 0)"/>
     <use xlink:href="#DejaVuSans-Bold-74" transform="translate(1871.142578 0)"/>
     <use xlink:href="#DejaVuSans-Bold-75" transform="translate(1918.945312 0)"/>
     <use xlink:href="#DejaVuSans-Bold-64" transform="translate(1990.136719 0)"/>
     <use xlink:href="#DejaVuSans-Bold-69" transform="translate(2061.71875 0)"/>
     <use xlink:href="#DejaVuSans-Bold-61" transform="translate(2095.996094 0)"/>
     <use xlink:href="#DejaVuSans-Bold-6e" transform="translate(2163.476562 0)"/>
     <use xlink:href="#DejaVuSans-Bold-74" transform="translate(2234.667969 0)"/>
     <use xlink:href="#DejaVuSans-Bold-20" transform="translate(2282.470703 0)"/>
     <use xlink:href="#DejaVuSans-Bold-28" transform="translate(2317.285156 0)"/>
     <use xlink:href="#DejaVuSans-Bold-6d" transform="translate(2362.988281 0)"/>
     <use xlink:href="#DejaVuSans-Bold-61" transform="translate(2467.1875 0)"/>
     <use xlink:href="#DejaVuSans-Bold-74" transform="translate(2534.667969 0)"/>
     <use xlink:href="#DejaVuSans-Bold-e9" transform="translate(2582.470703 0)"/>
     <use xlink:href="#DejaVuSans-Bold-72" transform="translate(2650.292969 0)"/>
     <use xlink:href="#DejaVuSans-Bold-69" transform="translate(2699.609375 0)"/>
     <use xlink:href="#DejaVuSans-Bold-61" transform="translate(2733.886719 0)"/>
     <use xlink:href="#DejaVuSans-Bold-75" transform="translate(2801.367188 0)"/>
     <use xlink:href="#DejaVuSans-Bold-78" transform="translate(2872.558594 0)"/>
     <use xlink:href="#DejaVuSans-Bold-20" transform="translate(2937.060547 0)"/>
     <use xlink:href="#DejaVuSans-Bold-2b" transform="translate(2971.875 0)"/>
     <use xlink:href="#DejaVuSans-Bold-20" transform="translate(3055.664062 0)"/>
     <use xlink:href="#DejaVuSans-Bold-71" transform="translate(3090.478516 0)"/>
     <use xlink:href="#DejaVuSans-Bold-75" transform="translate(3162.060547 0)"/>
     <use xlink:href="#DejaVuSans-Bold-69" transform="translate(3233.251953 0)"/>
     <use xlink:href="#DejaVuSans-Bold-7a" transform="translate(3267.529297 0)"/>
     <use xlink:href="#DejaVuSans-Bold-20" transform="translate(3325.732422 0)"/>
     <use xlink:href="#DejaVuSans-Bold-2b" transform="translate(3360.546875 0)"/>
     <use xlink:href="#DejaVuSans-Bold-20" transform="translate(3444.335938 0)"/>
     <use xlink:href="#DejaVuSans-Bold-65" transform="translate(3479.150391 0)"/>
     <use xlink:href="#DejaVuSans-Bold-72" transform="translate(3546.972656 0)"/>
     <use xlink:href="#DejaVuSans-Bold-72" transform="translate(3596.289062 0)"/>
     <use xlink:href="#DejaVuSans-Bold-65" transform="translate(3645.605469 0)"/>
     <use xlink:href="#DejaVuSans-Bold-75" transform="translate(3713.427734 0)"/>
     <use xlink:href="#DejaVuSans-Bold-72" transform="translate(3784.619141 0)"/>
     <use xlink:href="#DejaVuSans-Bold-73" transform="translate(3833.935547 0)"/>
     <use xlink:href="#DejaVuSans-Bold-29" transform="translate(3893.457031 0)"/>
    </g>
   </g>
   <g id="legend_1">
    <g id="patch_7">
     <path d="M 54.81 65.366125 
L 330.150625 65.366125 
Q 332.150625 65.366125 332.150625 63.366125 
L 332.150625 49.288 
Q 332.150625 47.288 330.150625 47.288 
L 54.81 47.288 
Q 52.81 47.288 52.81 49.288 
L 52.81 63.366125 
Q 52.81 65.366125 54.81 65.366125 
z
" style="fill: #ffffff; opacity: 0.8; stroke: #cccccc; stroke-linejoin: miter"/>
    </g>
    <g id="line2d_26">
     <path d="M 56.81 55.786438 
L 66.81 55.786438 
L 76.81 55.786438 
" style="fill: none; stroke: #dc2626; stroke-width: 1.5; stroke-linecap: square"/>
    </g>
    <g id="text_16">
     <!-- régression linéaire : pente = 0.001 ms / élément -->
     <g transform="translate(84.81 59.286438) scale(0.1 -0.1)">
      <defs>
       <path id="DejaVuSans-3a" d="M 750 794 
L 1409 794 
L 1409 0 
L 750 0 
L 750 794 
z
M 750 3309 
L 1409 3309 
L 1409 2516 
L 750 2516 
L 750 3309 
z
" transform="scale(0.015625)"/>
       <path id="DejaVuSans-3d" d="M 678 2906 
L 4684 2906 
L 4684 2381 
L 678 2381 
L 678 2906 
z
M 678 1631 
L 4684 1631 
L 4684 1100 
L 678 1100 
L 678 1631 
z
" transform="scale(0.015625)"/>
       <path id="DejaVuSans-2f" d="M 1625 4666 
L 2156 4666 
L 531 -594 
L 0 -594 
L 1625 4666 
z
" transform="scale(0.015625)"/>
      </defs>
      <use xlink:href="#DejaVuSans-72"/>
      <use xlink:href="#DejaVuSans-e9" transform="translate(38.863281 0)"/>
      <use xlink:href="#DejaVuSans-67" transform="translate(100.386719 0)"/>
      <use xlink:href="#DejaVuSans-72" transform="translate(163.863281 0)"/>
      <use xlink:href="#DejaVuSans-65" transform="translate(202.726562 0)"/>
      <use xlink:href="#DejaVuSans-73" transform="translate(264.25 0)"/>
      <use xlink:href="#DejaVuSans-73" transform="translate(316.349609 0)"/>
      <use xlink:href="#DejaVuSans-69" transform="translate(368.449219 0)"/>
      <use xlink:href="#DejaVuSans-6f" transform="translate(396.232422 0)"/>
      <use xlink:href="#DejaVuSans-6e" transform="translate(457.414062 0)"/>
      <use xlink:href="#DejaVuSans-20" transform="translate(520.792969 0)"/>
      <use xlink:href="#DejaVuSans-6c" transform="translate(552.580078 0)"/>
      <use xlink:href="#DejaVuSans-69" transform="translate(580.363281 0)"/>
      <use xlink:href="#DejaVuSans-6e" transform="translate(608.146484 0)"/>
      <use xlink:href="#DejaVuSans-e9" transform="translate(671.525391 0)"/>
      <use xlink:href="#DejaVuSans-61" transform="translate(733.048828 0)"/>
      <use xlink:href="#DejaVuSans-69" transform="translate(794.328125 0)"/>
      <use xlink:href="#DejaVuSans-72" transform="translate(822.111328 0)"/>
      <use xlink:href="#DejaVuSans-65" transform="translate(860.974609 0)"/>
      <use xlink:href="#DejaVuSans-20" transform="translate(922.498047 0)"/>
      <use xlink:href="#DejaVuSans-3a" transform="translate(954.285156 0)"/>
      <use xlink:href="#DejaVuSans-20" transform="translate(987.976562 0)"/>
      <use xlink:href="#DejaVuSans-70" transform="translate(1019.763672 0)"/>
      <use xlink:href="#DejaVuSans-65" transform="translate(1083.240234 0)"/>
      <use xlink:href="#DejaVuSans-6e" transform="translate(1144.763672 0)"/>
      <use xlink:href="#DejaVuSans-74" transform="translate(1208.142578 0)"/>
      <use xlink:href="#DejaVuSans-65" transform="translate(1247.351562 0)"/>
      <use xlink:href="#DejaVuSans-20" transform="translate(1308.875 0)"/>
      <use xlink:href="#DejaVuSans-3d" transform="translate(1340.662109 0)"/>
      <use xlink:href="#DejaVuSans-20" transform="translate(1424.451172 0)"/>
      <use xlink:href="#DejaVuSans-30" transform="translate(1456.238281 0)"/>
      <use xlink:href="#DejaVuSans-2e" transform="translate(1519.861328 0)"/>
      <use xlink:href="#DejaVuSans-30" transform="translate(1551.648438 0)"/>
      <use xlink:href="#DejaVuSans-30" transform="translate(1615.271484 0)"/>
      <use xlink:href="#DejaVuSans-31" transform="translate(1678.894531 0)"/>
      <use xlink:href="#DejaVuSans-20" transform="translate(1742.517578 0)"/>
      <use xlink:href="#DejaVuSans-6d" transform="translate(1774.304688 0)"/>
      <use xlink:href="#DejaVuSans-73" transform="translate(1871.716797 0)"/>
      <use xlink:href="#DejaVuSans-20" transform="translate(1923.816406 0)"/>
      <use xlink:href="#DejaVuSans-2f" transform="translate(1955.603516 0)"/>
      <use xlink:href="#DejaVuSans-20" transform="translate(1989.294922 0)"/>
      <use xlink:href="#DejaVuSans-e9" transform="translate(2021.082031 0)"/>
      <use xlink:href="#DejaVuSans-6c" transform="translate(2082.605469 0)"/>
      <use xlink:href="#DejaVuSans-e9" transform="translate(2110.388672 0)"/>
      <use xlink:href="#DejaVuSans-6d" transform="translate(2171.912109 0)"/>
      <use xlink:href="#DejaVuSans-65" transform="translate(2269.324219 0)"/>
      <use xlink:href="#DejaVuSans-6e" transform="translate(2330.847656 0)"/>
      <use xlink:href="#DejaVuSans-74" transform="translate(2394.226562 0)"/>
     </g>
    </g>
   </g>
  </g>
 </g>
 <defs>
  <clipPath id="p54b6d1ae5c">
   <rect x="47.81" y="42.288" width="589.39" height="311.392"/>
  </clipPath>
 </defs>
</svg>
